<?xml version="1.0" standalone="no"?>
<!DOCTYPE svg PUBLIC "-//W3C//DTD SVG 20010904//EN"
 "http://www.w3.org/TR/2001/REC-SVG-20010904/DTD/svg10.dtd">
<svg version="1.0" xmlns="http://www.w3.org/2000/svg"
 width="1280.000000pt" height="1280.000000pt" viewBox="0 0 1280.000000 1280.000000"
 preserveAspectRatio="xMidYMid meet">
<metadata>
Created by potrace 1.14, written by Peter Selinger 2001-2017
</metadata>
<g transform="translate(0.000000,1280.000000) scale(0.100000,-0.100000)"
fill="#000000" stroke="none">
<path d="M10912 10648 c3 -9 31 -14 89 -15 46 0 76 1 67 4 -10 2 -18 9 -18 14
0 5 -32 9 -71 9 -52 0 -70 -3 -67 -12z"/>
<path d="M5948 7835 c-1 -1 -57 -6 -123 -9 -149 -9 -192 -14 -216 -26 -12 -7
-20 -7 -25 1 -7 12 -33 9 -131 -14 -35 -8 -63 -13 -63 -11 0 3 -14 -3 -31 -12
-17 -9 -42 -14 -55 -11 -13 2 -24 0 -24 -5 0 -6 -6 -8 -13 -5 -14 5 -138 -17
-167 -30 -8 -3 -28 -8 -43 -10 -15 -1 -41 -10 -57 -18 -16 -8 -36 -12 -45 -9
-9 4 -23 0 -33 -9 -9 -8 -37 -21 -62 -28 -25 -7 -49 -19 -55 -26 -5 -7 -23
-14 -40 -16 -16 -2 -48 -11 -70 -21 -22 -10 -54 -19 -72 -19 -17 -1 -29 -5
-26 -10 3 -4 -4 -11 -16 -14 -11 -3 -18 -9 -15 -14 3 -5 -5 -9 -18 -9 -13 0
-30 -9 -38 -20 -8 -11 -20 -20 -27 -20 -7 0 -13 -4 -13 -10 0 -5 -9 -10 -20
-10 -14 0 -20 -6 -18 -16 2 -9 -7 -20 -19 -25 -24 -9 -33 5 -10 14 9 4 9 6 -1
6 -18 1 -40 -21 -35 -36 3 -7 12 -9 21 -6 9 3 14 2 9 -2 -4 -5 -15 -9 -25 -10
-9 -1 -30 -6 -47 -11 l-30 -8 35 -7 c32 -6 33 -7 12 -14 -18 -6 -20 -10 -10
-16 10 -7 11 -12 0 -29 -10 -16 -10 -20 2 -20 15 0 39 24 30 32 -2 3 7 8 21
10 27 6 35 -6 10 -16 -30 -11 -14 -24 25 -19 33 5 40 3 40 -12 0 -9 -10 -25
-22 -35 l-23 -19 32 2 c18 1 33 5 33 8 0 4 7 9 14 12 11 4 13 1 9 -10 -5 -13
-2 -15 15 -11 12 4 25 2 28 -3 3 -5 10 -7 15 -4 5 3 6 -1 3 -9 -4 -10 0 -14
12 -12 10 2 20 8 22 14 5 15 32 16 32 1 0 -5 5 -7 10 -4 6 3 8 18 4 33 -5 25
-4 25 9 10 18 -23 33 -23 46 -1 5 10 13 15 17 11 4 -4 -4 -16 -17 -27 -19 -15
-21 -22 -12 -32 10 -10 14 -9 19 4 3 9 15 17 25 17 10 0 19 5 19 10 0 6 -5 10
-12 10 -6 0 -9 2 -6 5 3 3 21 -2 41 -10 21 -8 37 -11 37 -7 0 8 27 12 98 14
24 1 32 6 32 20 0 11 7 18 18 17 10 0 12 -3 5 -6 -26 -10 -12 -23 25 -24 20 0
30 -3 22 -6 -8 -4 -20 -13 -27 -22 -7 -9 -13 -11 -13 -6 0 6 -9 11 -20 12 -22
2 -24 -5 -11 -26 6 -9 10 -10 16 -2 5 9 10 9 20 1 10 -8 15 -6 20 10 5 16 12
19 27 14 15 -4 18 -3 13 6 -4 7 -1 16 6 21 11 7 9 9 -6 9 -15 0 -17 2 -6 9 7
5 10 14 7 20 -5 7 2 11 19 11 19 0 29 -6 32 -21 5 -19 8 -20 17 -7 14 19 50
28 67 17 10 -6 4 -9 -18 -9 -18 0 -33 -5 -33 -11 0 -6 7 -8 16 -5 9 3 31 6 50
6 22 0 34 5 34 14 0 7 7 19 15 26 13 11 14 10 9 -4 -3 -9 -1 -16 4 -16 6 0 18
-7 27 -16 24 -24 31 -8 11 26 -9 17 -14 30 -11 30 13 0 44 -45 45 -65 1 -18 2
-18 11 -3 5 9 16 15 23 12 8 -3 17 0 21 7 8 12 -12 28 -50 41 -17 5 -16 6 7 7
15 1 30 -3 33 -9 7 -12 97 -1 106 13 4 5 9 5 13 -1 4 -6 -2 -15 -11 -21 -14
-8 -10 -10 25 -11 23 0 51 -6 62 -12 15 -10 22 -10 32 0 9 9 8 12 -7 12 -11 0
-26 4 -34 9 -10 6 -1 9 27 8 23 -1 42 -5 42 -9 0 -5 9 -8 20 -8 22 0 62 29 55
40 -2 4 7 12 20 18 15 7 25 8 25 2 0 -6 -7 -10 -15 -10 -8 0 -15 -7 -15 -15 0
-20 25 -19 46 2 13 13 19 14 22 5 2 -6 10 -12 19 -12 10 0 12 6 8 21 l-7 22
31 -22 c17 -12 31 -29 31 -38 0 -28 89 -9 117 25 l23 27 -4 -37 c-2 -30 1 -37
18 -42 28 -7 33 1 10 19 -10 8 -14 15 -7 15 6 0 15 -5 19 -11 4 -6 20 -8 40
-4 24 4 34 2 32 -6 -2 -6 3 -14 10 -16 6 -3 12 0 12 6 0 6 6 11 14 11 11 0 12
5 3 24 -10 22 -14 23 -37 12 -14 -7 -36 -12 -50 -12 -19 1 -24 6 -22 21 2 11
8 25 14 30 7 7 8 3 3 -12 -7 -24 12 -32 31 -14 9 9 42 14 77 12 19 -1 24 -31
5 -31 -6 0 -3 -8 8 -18 21 -20 76 -22 82 -3 2 6 8 11 13 11 16 0 9 -21 -13
-41 -15 -12 -17 -17 -6 -13 9 3 30 -1 46 -10 28 -14 42 -13 42 6 0 4 -11 8
-25 8 -14 0 -25 5 -25 11 0 7 10 9 28 5 l27 -6 -27 23 c-35 28 -37 45 -3 23
13 -9 32 -15 42 -14 33 2 53 -2 53 -12 0 -6 -9 -6 -25 0 -30 11 -40 -2 -23
-29 11 -19 14 -19 30 -4 17 15 18 15 18 -3 0 -13 8 -19 25 -20 20 -2 24 2 21
15 -7 20 2 35 32 50 32 17 36 9 12 -22 -22 -28 -16 -39 18 -30 13 3 22 13 22
24 0 18 2 18 34 -3 19 -13 31 -25 26 -28 -13 -9 -6 -53 10 -58 12 -4 13 -2 3
9 -7 9 -8 20 -4 28 11 17 32 5 24 -14 -3 -8 -4 -15 -2 -15 2 0 18 -4 36 -9 25
-7 31 -6 27 4 -3 7 0 16 5 20 6 3 9 11 6 16 -3 5 1 6 10 3 8 -4 22 -1 30 6 8
7 15 11 16 9 0 -2 2 -13 4 -24 4 -20 35 -49 43 -40 3 2 -1 11 -7 19 -10 12 -7
15 18 14 22 -1 30 -6 29 -16 -2 -8 3 -17 10 -19 6 -3 12 0 12 6 0 6 8 11 18
11 10 0 23 5 29 11 8 8 13 8 17 0 4 -6 18 -11 31 -11 13 0 27 -5 30 -10 4 -6
11 -8 16 -4 5 3 7 10 4 15 -4 5 1 9 10 9 9 0 13 5 10 10 -3 6 1 10 9 10 20 0
20 -9 1 -30 -14 -15 -13 -17 6 -15 11 1 24 6 27 12 4 6 20 15 35 18 22 6 32 2
51 -18 15 -17 20 -28 13 -31 -7 -2 2 -5 20 -5 40 -1 52 -19 16 -23 -28 -3 -73
25 -73 47 0 6 -12 12 -27 13 -27 1 -27 1 -9 -13 11 -8 23 -15 27 -15 3 0 12
-13 19 -30 7 -16 15 -29 19 -28 16 2 71 -15 71 -23 0 -5 7 -9 16 -9 23 0 7 19
-29 34 l-32 14 41 1 c33 1 43 -3 53 -22 10 -18 19 -22 42 -19 20 3 28 9 25 18
-3 9 3 12 22 9 15 -1 33 -3 40 -4 17 -1 15 -31 -3 -31 -8 0 -15 8 -15 17 0 14
-4 12 -17 -7 -9 -14 -24 -30 -33 -37 -13 -11 -12 -12 8 -13 13 0 22 6 22 15 0
10 10 15 29 15 16 0 32 6 34 13 3 6 6 2 6 -9 1 -12 9 -28 18 -35 11 -10 14
-10 9 -1 -4 8 -1 12 9 12 12 0 15 5 11 16 -3 9 -6 20 -6 25 0 6 -5 7 -11 4
-12 -8 -49 22 -49 39 0 6 5 4 10 -4 11 -17 70 -21 70 -5 0 6 -9 35 -20 65 -23
63 -24 80 -9 114 23 49 44 51 464 51 431 0 697 -14 1000 -52 248 -31 223 -26
330 -58 108 -32 221 -89 295 -150 151 -124 264 -328 288 -520 19 -154 -21
-358 -92 -478 -28 -46 -35 -52 -69 -55 -21 -2 -37 1 -37 7 0 6 5 11 10 11 6 0
10 5 10 10 0 16 -19 11 -41 -11 -16 -16 -23 -18 -29 -9 -4 7 -13 9 -20 5 -7
-4 -16 -2 -21 6 -7 11 -10 9 -15 -7 -5 -19 -10 -20 -45 -14 -48 9 -62 20 -26
20 36 0 35 20 0 21 -23 1 -24 2 -6 6 21 4 23 33 1 33 -5 0 -6 -4 -3 -10 3 -6
-1 -7 -9 -4 -11 4 -16 0 -16 -15 0 -12 -4 -21 -10 -21 -5 0 -10 7 -10 15 0 17
-25 10 -51 -16 -16 -16 -16 -17 5 -28 19 -10 19 -11 -7 -6 -21 4 -27 2 -21 -6
4 -7 3 -9 -3 -6 -5 3 -26 -5 -46 -18 -20 -14 -41 -25 -46 -25 -6 0 -11 -7 -11
-17 0 -9 -3 -14 -6 -10 -4 3 -25 -4 -48 -17 -51 -28 -173 -66 -240 -74 -77 -9
-252 -5 -326 8 -106 19 -253 74 -271 102 -3 5 -10 10 -15 11 -5 1 -7 7 -6 12
2 6 0 7 -4 3 -10 -10 -64 23 -64 39 0 8 -13 16 -29 19 -16 4 -28 11 -25 18 2
6 -9 12 -28 13 -55 4 -101 15 -89 23 7 4 -4 7 -24 8 -19 1 -35 -3 -35 -9 0 -6
10 -8 23 -4 17 5 19 4 7 -4 -34 -24 -58 -8 -51 32 3 17 -24 0 -34 -21 -5 -12
-17 -22 -25 -22 -12 0 -12 2 -2 9 11 7 10 10 -3 15 -25 9 -37 7 -29 -6 4 -7 3
-8 -5 -4 -6 4 -19 2 -28 -6 -10 -7 -14 -8 -10 -1 11 18 -16 22 -36 5 -16 -15
-17 -14 -11 1 5 13 2 16 -10 11 -9 -3 -16 -1 -16 6 0 7 -6 6 -16 -4 -19 -19
-34 -21 -34 -3 0 6 -5 4 -11 -5 -8 -15 -13 -15 -23 -5 -8 6 -12 14 -11 17 2 3
-5 6 -16 6 -10 0 -22 -8 -25 -18 -3 -10 -10 -16 -15 -12 -5 3 -7 10 -4 15 4 5
-7 9 -24 9 -22 0 -29 -4 -25 -14 4 -11 0 -13 -17 -9 -13 4 -18 8 -11 11 6 2
12 8 12 13 0 14 -34 11 -56 -6 -22 -17 -38 -20 -29 -5 3 6 2 10 -4 10 -5 0
-13 -5 -16 -10 -4 -6 -11 -7 -17 -4 -6 4 -14 0 -19 -7 -7 -11 -9 -9 -9 6 0 16
-7 20 -37 22 -25 1 -33 -1 -23 -7 26 -16 1 -24 -37 -12 -40 12 -106 11 -136
-2 -13 -6 -25 -2 -42 14 -14 13 -28 20 -32 17 -3 -4 -1 -7 6 -7 7 0 9 -5 6
-10 -5 -8 -11 -7 -21 1 -11 9 -15 8 -20 -6 -4 -9 -10 -12 -13 -7 -8 12 -64 26
-57 13 3 -5 -1 -11 -8 -14 -8 -3 -16 -2 -18 3 -4 11 -25 14 -98 11 -42 -1 -51
-4 -40 -12 11 -8 7 -9 -15 -3 -16 4 -50 8 -74 10 -24 1 -46 6 -50 10 -7 10
-151 13 -146 3 2 -3 -17 -5 -42 -4 -59 3 -90 -4 -71 -16 9 -6 9 -9 1 -9 -7 0
-16 6 -20 14 -9 16 -63 33 -63 19 0 -5 -20 -8 -45 -8 -25 0 -45 4 -45 9 0 5
-6 3 -13 -3 -8 -6 -16 -9 -19 -6 -11 11 -112 25 -117 16 -6 -10 -25 -14 -55
-12 -12 1 -16 6 -12 16 5 13 2 13 -19 -1 -14 -9 -25 -12 -25 -6 0 5 -9 12 -19
15 -14 3 -18 1 -14 -9 3 -8 -1 -14 -11 -14 -9 0 -13 6 -10 14 4 10 -4 13 -33
11 -21 -1 -38 -3 -38 -5 0 -10 -62 -3 -71 8 -8 11 -15 12 -31 4 -11 -6 -30 -8
-43 -5 -18 5 -21 3 -14 -8 5 -9 -1 -8 -20 4 -19 13 -31 16 -38 9 -7 -7 -15 -6
-25 4 -17 16 -37 19 -28 4 8 -13 -77 -9 -87 4 -4 6 -12 5 -21 -3 -11 -9 -17
-9 -22 -1 -4 6 -13 9 -21 6 -8 -3 -14 0 -14 7 0 9 -2 9 -8 1 -8 -14 -62 -16
-62 -3 0 5 -5 9 -11 9 -5 0 -8 -4 -4 -9 10 -17 -12 -21 -25 -6 -8 9 -17 12
-24 7 -6 -5 -28 -7 -50 -4 -26 3 -34 7 -25 13 11 7 10 9 -3 9 -9 0 -20 -4 -23
-10 -3 -5 -12 -10 -18 -10 -7 0 -6 4 3 10 11 7 11 10 2 10 -7 0 -16 -10 -21
-22 -6 -18 -9 -19 -14 -5 -4 11 -12 14 -23 10 -11 -4 -15 -2 -11 4 4 6 -8 10
-29 11 -19 1 -32 -2 -30 -7 3 -5 -5 -11 -19 -13 -13 -3 -22 -2 -20 2 3 4 -4
10 -15 13 -11 3 -18 1 -14 -4 3 -5 -2 -9 -10 -9 -9 0 -16 5 -16 11 0 7 -10 9
-25 5 -15 -4 -25 -2 -25 5 0 6 -7 3 -16 -6 -10 -9 -20 -12 -23 -7 -8 12 -71
21 -71 10 0 -5 -12 -8 -28 -7 -15 2 -33 0 -39 -4 -9 -6 -11 -3 -7 7 4 11 14
14 33 10 14 -4 23 -3 18 2 -14 15 -48 14 -70 -1 -12 -8 -26 -15 -32 -15 -5 0
-3 5 5 10 11 7 5 10 -22 10 -24 0 -38 -5 -38 -12 0 -8 -5 -6 -10 4 -6 10 -18
14 -30 11 -11 -3 -20 0 -20 6 0 6 -7 11 -15 11 -8 0 -15 -4 -15 -10 0 -5 5
-10 12 -10 6 0 9 -2 6 -5 -3 -3 -18 0 -33 7 -23 10 -29 10 -33 0 -5 -15 -23
-16 -20 0 2 7 -19 12 -64 12 -37 1 -72 6 -78 12 -8 8 -24 9 -51 3 -22 -5 -51
-6 -66 -3 -22 6 -25 4 -20 -10 5 -13 3 -15 -11 -8 -16 8 -78 15 -159 16 -22 1
-33 6 -34 16 0 10 -2 11 -6 3 -7 -19 -93 -17 -107 3 -12 16 -51 9 -40 -7 6
-11 -9 -12 -20 -2 -19 19 -95 21 -107 2 -6 -10 -9 -10 -9 -1 0 6 -9 12 -21 12
-13 0 -18 4 -13 13 6 9 5 9 -8 0 -8 -7 -18 -9 -22 -5 -4 4 -24 8 -44 9 -20 1
-48 5 -61 9 -16 5 -22 4 -18 -3 4 -7 -3 -10 -18 -9 -14 0 -25 4 -25 7 0 3 -14
6 -32 7 -17 0 -34 6 -38 12 -5 8 -10 9 -14 2 -3 -5 -21 -8 -38 -6 -73 10 -161
5 -186 -10 -7 -4 -12 -1 -12 7 0 8 -7 17 -15 21 -9 3 -15 0 -15 -9 0 -22 -28
-18 -35 5 -7 23 -25 27 -25 5 0 -8 -4 -15 -10 -15 -5 0 -10 5 -10 11 0 8 -4 8
-13 0 -10 -7 -17 -7 -24 0 -7 7 -17 8 -25 3 -19 -13 -59 -12 -54 1 2 6 -6 12
-17 13 -17 1 -18 -1 -7 -8 8 -5 12 -12 8 -15 -3 -4 -15 -1 -26 6 -17 10 -23
10 -36 0 -12 -10 -16 -10 -16 -2 0 8 -8 10 -20 6 -12 -4 -27 -2 -35 5 -7 6
-32 9 -54 7 -23 -2 -41 0 -41 4 0 5 -27 6 -60 4 -33 -3 -60 -1 -60 3 0 5 -19
9 -42 9 -24 0 -52 1 -63 1 -11 1 -31 1 -45 1 -69 -2 -163 10 -170 21 -4 6 -10
11 -14 10 -20 -4 -126 14 -126 22 0 5 -17 8 -38 7 -21 -2 -44 1 -52 6 -8 5
-25 10 -39 11 -39 5 -60 34 -62 84 -2 62 19 106 80 167 142 141 439 230 1051
317 559 79 699 88 740 51 16 -14 20 -31 20 -81 0 -56 3 -65 26 -83 15 -12 32
-21 38 -21 6 0 5 4 -2 9 -15 9 -15 20 -1 37 6 8 4 14 -6 18 -21 8 -36 49 -21
58 8 5 7 8 -2 8 -10 0 -11 14 -6 59 l6 60 -33 20 c-19 12 -38 21 -44 21 -5 -1
3 -8 19 -16 49 -27 16 -36 -141 -40 -81 -2 -182 -8 -223 -13 -41 -6 -95 -12
-120 -15 -25 -3 -65 -8 -90 -11 -25 -3 -71 -10 -103 -16 -32 -6 -77 -12 -100
-14 -119 -9 -508 -80 -612 -112 -44 -13 -87 -25 -95 -28 -64 -16 -229 -94
-302 -142 -29 -20 -41 -23 -51 -14 -11 8 -18 5 -34 -12 -37 -42 -54 -77 -73
-155 -22 -87 -24 -103 -9 -82 8 12 9 10 8 -10 -3 -28 24 -95 48 -122 9 -10 13
-18 10 -18 -8 0 67 -75 112 -112 18 -16 38 -25 44 -21 6 4 8 0 4 -10 -4 -11
-1 -17 9 -17 9 0 12 -5 8 -12 -4 -7 -3 -8 4 -4 15 9 63 -4 56 -15 -3 -5 1 -6
9 -3 9 3 17 -3 20 -17 4 -16 11 -20 26 -16 15 4 21 0 21 -11 0 -11 3 -13 11
-5 12 12 49 6 49 -9 0 -6 7 -7 16 -4 10 4 13 2 8 -6 -5 -7 0 -9 14 -6 15 4 22
2 22 -7 0 -9 15 -15 43 -17 27 -2 41 -7 40 -15 -2 -9 9 -13 32 -13 19 0 35 -4
35 -9 0 -4 12 -6 27 -4 22 4 25 2 13 -6 -8 -6 -10 -11 -5 -11 6 0 16 5 23 12
9 9 15 9 24 0 16 -16 52 -16 42 1 -5 8 -2 7 10 -2 13 -11 14 -16 4 -22 -8 -6
3 -9 29 -9 24 0 58 -9 78 -20 20 -11 47 -20 60 -20 28 0 35 -19 8 -21 -10 -1
0 -5 22 -8 48 -8 55 -5 31 12 -16 12 -16 13 4 14 14 1 24 -5 27 -18 4 -12 14
-19 30 -19 16 0 23 -5 20 -13 -3 -9 10 -13 49 -14 29 -1 53 2 53 5 -3 20 2 32
11 27 6 -4 8 -10 5 -15 -6 -9 18 -20 46 -20 10 0 19 -6 19 -12 0 -7 6 -4 12 6
9 15 7 22 -8 33 -10 7 -13 13 -6 13 6 0 19 -11 28 -25 12 -18 22 -24 35 -20
12 4 19 1 19 -7 1 -7 7 1 14 17 l13 30 0 -28 c1 -34 11 -47 23 -28 6 11 9 10
13 -5 5 -18 5 -18 6 0 1 18 2 18 25 -3 20 -19 24 -20 29 -7 4 9 11 16 17 16 6
0 8 -4 5 -10 -3 -5 -1 -10 5 -10 6 0 8 -5 5 -10 -4 -7 2 -9 18 -5 19 5 26 2
30 -12 4 -16 5 -16 6 2 1 18 4 16 26 -10 20 -25 24 -27 25 -11 0 13 3 16 13 9
18 -15 119 -24 137 -13 12 8 10 10 -9 10 -24 0 -24 1 -6 14 17 12 23 11 50 -9
29 -22 125 -41 125 -25 0 5 -6 10 -12 13 -7 2 -10 7 -7 11 3 3 15 -3 27 -15
22 -19 42 -18 42 2 0 6 -5 7 -10 4 -6 -3 -17 0 -25 9 -10 10 -12 17 -4 21 5 4
13 4 16 1 10 -10 44 15 36 27 -4 8 -1 8 9 -1 15 -12 16 -9 12 25 -2 21 -6 65
-8 99 l-5 61 37 11 c86 25 211 32 642 36 701 6 1462 -27 1935 -84 44 -5 105
-12 135 -15 79 -6 137 -34 99 -47 -7 -2 -9 -13 -5 -26 5 -16 13 -21 29 -18 12
3 33 5 47 6 l25 2 -25 8 c-21 7 -22 8 -5 9 12 1 26 -4 32 -10 8 -8 17 -8 31 0
36 19 46 13 26 -16 -9 -16 -26 -35 -36 -44 -17 -16 -18 -17 -1 -24 12 -5 14
-9 6 -12 -7 -3 -13 -14 -13 -24 0 -11 4 -17 10 -14 5 3 18 1 27 -4 17 -10 17
-10 1 -11 -20 0 -22 -8 -8 -30 8 -13 10 -12 10 3 0 9 7 17 16 17 8 0 12 -4 9
-10 -4 -6 10 -10 34 -10 23 0 41 -4 41 -9 0 -5 -17 -7 -39 -4 -24 3 -41 1 -46
-6 -5 -9 3 -10 29 -6 29 6 36 4 36 -9 0 -23 25 -20 43 7 8 12 19 18 23 14 5
-5 1 -14 -9 -22 -21 -15 -13 -45 13 -45 13 0 16 7 14 28 l-4 27 11 -28 c6 -15
15 -24 21 -21 6 4 5 10 -3 15 -7 4 -10 11 -6 15 4 4 15 0 25 -9 15 -13 21 -14
32 -4 10 10 12 9 7 -5 -3 -9 -1 -19 6 -22 7 -2 -3 -5 -20 -5 -47 -1 -41 -18 7
-23 28 -2 40 0 40 9 0 20 9 16 40 -18 28 -31 28 -31 32 -8 3 23 38 41 38 20 0
-6 -7 -11 -15 -11 -18 0 -20 -20 -2 -20 7 0 4 -7 -7 -15 -40 -30 -2 -14 43 18
51 37 112 69 118 63 2 -2 -23 -31 -57 -64 -33 -33 -57 -63 -52 -66 8 -5 63 36
110 81 16 16 32 17 32 3 0 -5 -4 -10 -10 -10 -5 0 -16 -15 -24 -32 -8 -18 -32
-51 -53 -72 -30 -30 -37 -43 -29 -52 8 -8 15 -9 24 -2 16 13 16 -4 0 -20 -7
-7 -8 -12 -2 -12 6 0 14 3 18 7 3 4 15 8 26 10 25 4 16 -24 -10 -32 -10 -3
-23 -12 -29 -19 -9 -11 -6 -15 14 -19 19 -3 25 -1 21 8 -3 8 1 16 9 18 7 3 15
-3 18 -13 3 -11 0 -21 -7 -23 -6 -2 -8 -8 -4 -12 11 -12 28 5 28 27 0 11 8 27
18 34 22 18 33 17 26 0 -4 -11 0 -13 15 -9 12 3 21 1 21 -6 0 -6 -5 -11 -11
-11 -6 0 -9 -6 -6 -14 3 -8 1 -17 -6 -20 -7 -2 -4 -5 5 -5 11 -1 15 -6 12 -15
-4 -11 3 -13 35 -10 28 2 41 0 41 -9 1 -8 5 -6 13 4 7 9 23 20 36 24 20 6 23
4 18 -9 -4 -11 -1 -16 11 -16 9 0 28 -3 42 -6 21 -5 22 -4 8 6 -26 16 -23 24
21 48 46 26 58 28 40 5 -12 -15 -12 -16 4 -10 11 4 17 1 17 -9 0 -8 -4 -13 -9
-10 -5 3 -11 -1 -15 -9 -3 -8 -12 -15 -21 -15 -8 0 -15 -7 -15 -15 0 -8 7 -15
15 -15 8 0 15 5 15 10 0 6 9 10 20 10 11 0 20 6 20 14 0 20 18 30 33 17 7 -5
23 -8 35 -4 13 3 22 1 22 -6 0 -6 5 -11 10 -11 6 0 10 8 10 19 0 12 9 20 27
24 33 6 53 -1 53 -19 0 -17 20 -19 21 -1 1 6 1 15 1 18 -1 3 13 3 30 1 18 -3
25 -7 18 -12 -9 -6 -9 -9 -1 -15 12 -7 41 11 41 25 0 5 -14 12 -31 15 -23 5
-28 10 -18 16 7 4 16 4 19 0 9 -14 50 -23 50 -12 0 6 9 11 20 11 11 0 20 -4
20 -10 0 -5 -7 -10 -15 -10 -8 0 -15 -4 -15 -10 0 -12 7 -12 48 -1 21 6 32 6
32 0 0 -15 102 -2 111 13 9 15 1 30 -12 22 -5 -3 -7 -9 -4 -14 7 -12 -16 -17
-50 -10 -24 4 -26 7 -12 12 9 4 23 5 31 2 7 -3 16 2 19 10 4 10 18 15 42 14
25 -1 34 -5 31 -15 -4 -9 4 -13 24 -13 17 0 30 5 30 11 0 6 -9 8 -20 4 -11 -3
-20 -2 -20 3 0 5 9 12 19 15 14 3 23 -3 31 -24 17 -39 31 -37 24 4 -3 18 -2
27 3 21 4 -6 18 -13 30 -16 17 -5 23 0 28 19 4 19 10 23 28 17 31 -9 33 -13
12 -28 -12 -9 -14 -15 -7 -20 6 -4 20 2 32 14 22 22 40 26 40 8 0 -9 3 -9 12
0 7 7 21 12 32 12 10 0 17 3 13 6 -5 5 -27 9 -79 13 -5 1 -8 5 -8 10 0 4 18 7
40 5 22 -2 40 1 40 6 0 16 37 11 44 -5 3 -8 2 -23 -1 -32 -6 -16 -5 -16 10 -4
9 7 14 17 11 22 -3 5 5 8 18 6 18 -1 22 2 20 17 -3 17 3 18 72 14 56 -4 79 -1
87 9 6 7 19 13 28 13 9 0 23 6 29 12 10 10 15 10 21 -1 5 -8 14 -10 21 -6 7 4
16 1 21 -6 7 -9 8 0 4 26 -3 22 -2 34 1 27 3 -6 10 -10 15 -7 5 4 6 -2 2 -12
-6 -15 -4 -16 9 -6 8 7 18 10 21 6 4 -3 7 -1 7 6 0 9 9 11 30 6 19 -4 30 -3
30 4 0 6 11 11 25 11 14 0 25 4 25 9 0 5 9 7 20 4 14 -4 20 0 20 11 0 15 24
20 103 19 20 0 23 13 5 20 -7 3 2 8 20 12 18 4 35 12 38 16 3 5 14 9 25 9 11
0 17 5 14 10 -4 6 7 10 24 10 22 0 31 5 31 17 0 9 3 14 6 10 3 -3 14 3 25 14
10 10 25 19 32 19 8 0 19 11 25 25 7 15 20 25 32 25 11 0 20 4 20 9 0 4 15 23
34 42 19 18 33 36 30 40 -2 4 4 10 14 13 10 4 25 19 33 34 8 15 22 34 31 43
10 9 18 21 18 28 0 6 5 11 11 11 6 0 9 7 6 15 -4 8 -1 17 5 21 7 4 8 3 4 -4
-4 -7 -5 -12 -2 -12 10 0 35 57 29 64 -4 3 0 6 7 6 7 0 11 2 8 6 -3 3 10 41
28 86 19 44 36 95 39 112 2 17 4 31 5 31 18 0 15 297 -4 383 -56 257 -235 496
-456 607 -158 79 -286 108 -575 130 -110 9 -258 20 -330 25 -143 11 -191 12
-184 6 5 -6 63 -10 369 -31 395 -27 514 -48 658 -116 45 -22 82 -42 82 -44 0
-6 -37 -1 -60 8 -86 33 -196 64 -258 72 -18 2 -45 6 -60 9 -15 3 -67 8 -117
11 -228 14 -267 16 -370 25 -326 28 -975 44 -1103 28 -59 -7 -61 5 -3 29 25
11 90 18 216 23 l180 7 -162 1 c-89 1 -185 -3 -213 -9 -68 -14 -123 -61 -118
-99 3 -21 1 -26 -13 -23 -9 3 -19 -3 -22 -11 -4 -9 -2 -16 3 -16 6 0 10 5 10
11 0 5 4 8 9 5 5 -3 7 -15 4 -25 -4 -16 -1 -19 16 -14 13 3 21 1 21 -6 0 -7
-4 -10 -8 -7 -5 3 -20 -5 -33 -17 -26 -24 -89 -50 -89 -36 0 5 7 9 15 9 8 0
15 7 15 15 0 8 5 15 11 15 5 0 7 -4 4 -10 -3 -5 0 -10 8 -10 21 0 28 26 11 40
-11 10 -17 10 -30 0 -8 -8 -14 -9 -13 -4 5 27 -3 44 -21 44 -11 0 -20 5 -20
11 0 6 9 8 20 4 11 -4 20 -2 20 4 0 6 7 7 17 4 11 -4 14 -3 9 5 -4 7 -18 12
-30 12 -33 0 -53 25 -36 45 15 18 7 19 -23 4 -19 -9 -18 -6 4 14 25 23 26 25
10 39 -9 8 -22 13 -27 11 -6 -2 -17 3 -24 12 -7 8 -22 15 -34 15 -20 1 -20 2
4 15 25 14 25 14 3 15 -13 0 -22 6 -20 13 1 7 -7 12 -20 11 -18 0 -20 2 -12
13 9 10 8 13 -5 13 -9 0 -16 5 -16 10 0 6 -6 10 -14 10 -8 0 -17 6 -20 13 -5
10 -7 10 -12 0 -8 -19 -25 -16 -22 4 2 12 -7 19 -34 26 -26 6 -35 13 -31 23 4
10 0 12 -11 8 -9 -4 -16 -1 -16 6 0 7 -6 10 -13 7 -7 -3 -24 1 -38 9 -13 7
-32 13 -42 14 -10 0 -25 7 -33 15 -18 18 -90 39 -126 36 -16 -1 -28 3 -28 8 0
13 -58 19 -71 7 -8 -8 -8 -5 0 12 10 18 9 22 -4 22 -8 0 -15 -4 -15 -8 0 -10
-45 -9 -79 3 -14 4 -45 9 -70 10 -72 5 -141 17 -141 25 0 4 -12 7 -27 7 -16 0
-37 3 -47 8 -15 6 -17 5 -11 -5 6 -10 2 -11 -21 -6 -29 8 -269 17 -276 11z
m-898 -254 c-25 -14 -76 -24 -65 -13 9 9 36 17 70 20 6 1 3 -2 -5 -7z m68 -11
c7 -11 9 -20 4 -20 -10 0 -32 22 -32 32 0 15 15 8 28 -12z m-161 -7 c-4 -3 3
-11 16 -18 12 -6 24 -8 27 -4 3 4 22 10 43 14 30 6 37 4 37 -8 0 -22 -17 -30
-24 -11 -5 14 -10 13 -42 -5 -42 -25 -41 -25 -47 -3 -2 9 -7 -1 -12 -24 -4
-24 -12 -41 -19 -39 -55 14 -77 34 -38 36 10 0 12 3 5 6 -23 9 -13 25 12 21
26 -5 35 6 13 15 -10 4 -9 8 2 16 16 12 37 15 27 4z m293 -23 c11 -7 7 -9 -17
-7 -17 1 -29 5 -26 10 6 10 25 9 43 -3z m-140 -10 c0 -5 -4 -10 -10 -10 -5 0
-10 5 -10 10 0 6 5 10 10 10 6 0 10 -4 10 -10z m-244 -35 c-2 -15 5 -31 17
-42 19 -17 20 -17 14 0 -6 15 -4 16 13 7 10 -5 30 -10 45 -10 15 0 24 -4 20
-10 -7 -11 -159 -5 -178 7 -6 4 -8 0 -4 -10 4 -10 10 -25 14 -34 5 -13 1 -12
-17 4 -19 19 -21 25 -10 38 7 8 24 16 39 16 20 1 22 2 6 6 -30 7 -43 23 -18
23 11 0 26 7 33 15 18 22 29 18 26 -10z m369 15 c-3 -5 -13 -6 -22 -3 -11 4
-14 3 -9 -5 5 -8 0 -12 -14 -12 -12 0 -19 4 -15 9 3 5 -5 12 -17 14 -13 2 1 5
30 6 32 0 51 -3 47 -9z m-131 -14 c-10 -8 -21 -12 -24 -10 -5 6 21 24 34 24 6
0 1 -6 -10 -14z m-69 -6 c3 -5 2 -10 -4 -10 -5 0 -13 5 -16 10 -3 6 -2 10 4
10 5 0 13 -4 16 -10z m-25 -15 c0 -10 -40 -10 -43 0 -4 8 3 10 19 7 13 -2 24
-6 24 -7z m70 -28 c0 -20 -25 1 -28 24 -2 23 -2 23 13 5 8 -11 15 -24 15 -29z
m-320 -2 c0 -8 -4 -15 -10 -15 -5 0 -10 7 -10 15 0 8 5 15 10 15 6 0 10 -7 10
-15z m-36 -30 c-4 -8 -11 -15 -16 -15 -6 0 -5 6 2 15 7 8 14 15 16 15 2 0 1
-7 -2 -15z m133 9 c-3 -3 -12 -4 -19 -1 -8 3 -5 6 6 6 11 1 17 -2 13 -5z
m-186 -37 c-13 -13 -26 -3 -16 12 3 6 11 8 17 5 6 -4 6 -10 -1 -17z m1524 3
c3 -5 1 -10 -4 -10 -6 0 -11 5 -11 10 0 6 2 10 4 10 3 0 8 -4 11 -10z m-165
-16 c0 -2 -7 -4 -15 -4 -8 0 -15 4 -15 10 0 5 7 7 15 4 8 -4 15 -8 15 -10z
m-86 -10 c9 -8 16 -19 16 -24 0 -15 -21 -23 -33 -11 -8 8 -6 11 8 11 16 0 16
2 -5 20 -13 11 -18 20 -12 20 6 0 18 -7 26 -16z m-1516 -1 c-10 -2 -18 -11
-18 -19 0 -8 -4 -14 -10 -14 -12 0 -12 3 -4 24 3 9 16 15 28 15 16 -1 17 -2 4
-6z m1969 1 c-3 -3 -12 -4 -19 -1 -8 3 -5 6 6 6 11 1 17 -2 13 -5z m860 0 c-3
-3 -12 -4 -19 -1 -8 3 -5 6 6 6 11 1 17 -2 13 -5z m-1614 -31 c15 -3 27 -9 27
-14 0 -14 -46 -10 -59 5 -7 8 -21 12 -31 9 -12 -3 -20 0 -20 7 0 8 9 10 28 6
15 -4 39 -10 55 -13z m1647 -8 c0 -23 -13 -23 -45 -3 l-30 19 28 -7 c18 -4 27
-2 27 6 0 6 5 8 10 5 6 -3 10 -12 10 -20z m-1880 5 c0 -5 -4 -10 -10 -10 -5 0
-10 5 -10 10 0 6 5 10 10 10 6 0 10 -4 10 -10z m140 0 c0 -5 -4 -10 -9 -10 -5
0 -18 -3 -28 -7 -16 -6 -16 -5 -4 10 15 19 41 23 41 7z m360 -16 c0 -8 -9 -14
-22 -14 -21 1 -21 2 -5 11 9 6 14 15 11 21 -4 7 -2 8 4 4 7 -4 12 -14 12 -22z
m870 16 c0 -5 -2 -10 -4 -10 -3 0 -8 5 -11 10 -3 6 -1 10 4 10 6 0 11 -4 11
-10z m-560 -10 c0 -5 -4 -10 -10 -10 -5 0 -10 5 -10 10 0 6 5 10 10 10 6 0 10
-4 10 -10z m137 4 c-3 -3 -12 -4 -19 -1 -8 3 -5 6 6 6 11 1 17 -2 13 -5z m98
-4 c-3 -5 -12 -10 -18 -10 -7 0 -6 4 3 10 19 12 23 12 15 0z m745 -10 c0 -5
-2 -10 -4 -10 -3 0 -8 5 -11 10 -3 6 -1 10 4 10 6 0 11 -4 11 -10z m-2320 -33
c0 -4 -10 -3 -21 4 -17 9 -19 13 -8 20 13 8 28 -5 29 -24z m-370 1 c9 -3 10
-7 3 -11 -6 -4 -19 3 -29 16 -11 12 -12 17 -4 11 8 -6 22 -13 30 -16z m2188
-21 c12 -3 10 -5 -5 -6 -19 -1 -23 4 -22 27 1 22 2 23 6 5 2 -12 12 -24 21
-26z m157 33 c3 -5 1 -10 -4 -10 -6 0 -11 5 -11 10 0 6 2 10 4 10 3 0 8 -4 11
-10z m-1925 -26 c0 -8 -4 -14 -9 -14 -11 0 -22 26 -14 34 9 9 23 -3 23 -20z
m74 11 c-4 -8 -10 -12 -15 -9 -14 8 -10 24 6 24 9 0 12 -6 9 -15z m1906 -17
c0 -10 -18 -9 -45 2 -16 6 -14 8 13 7 17 0 32 -4 32 -9z m-2420 -8 c0 -5 -4
-10 -10 -10 -5 0 -10 5 -10 10 0 6 5 10 10 10 6 0 10 -4 10 -10z m126 0 c8 0
14 -6 14 -14 0 -12 -4 -12 -30 0 -31 16 -42 31 -14 20 9 -3 22 -6 30 -6z m204
2 c0 -4 -15 -8 -32 -9 -30 -1 -31 -1 -8 7 34 11 40 11 40 2z m1990 -2 c18 -12
2 -12 -25 0 -13 6 -15 9 -5 9 8 0 22 -4 30 -9z m-130 -30 c0 -11 -7 -20 -15
-20 -15 0 -21 21 -8 33 12 13 23 7 23 -13z m236 5 c-16 -9 -34 -14 -40 -11 -6
2 -3 5 7 5 9 1 17 6 17 11 0 6 10 10 23 10 20 0 19 -2 -7 -15z m397 -10 c4 -8
2 -17 -3 -20 -11 -7 -40 5 -40 17 0 5 5 6 10 3 6 -3 10 -1 10 4 0 16 17 13 23
-4z m145 -39 c-9 -9 -18 -10 -35 -2 -30 14 -29 22 5 40 25 13 28 13 34 -5 5
-12 3 -25 -4 -33z m-463 34 c3 -5 2 -10 -4 -10 -5 0 -13 5 -16 10 -3 6 -2 10
4 10 5 0 13 -4 16 -10z m372 -46 c2 -6 -10 -8 -32 -6 -19 2 -35 8 -35 14 0 13
63 6 67 -8z m73 -14 c0 -5 -3 -10 -7 -11 -5 0 -26 -2 -48 -4 l-40 -4 30 14
c36 17 65 19 65 5z m-104 -25 c1 -15 -3 -25 -12 -25 -8 0 -11 6 -8 15 4 10 0
15 -12 15 -16 0 -17 2 -4 10 24 16 35 12 36 -15z m140 10 c-8 -8 -17 -15 -20
-15 -3 0 -6 7 -6 15 0 9 9 15 21 15 18 0 19 -2 5 -15z m-5431 -735 c3 -5 1
-10 -4 -10 -6 0 -11 5 -11 10 0 6 2 10 4 10 3 0 8 -4 11 -10z m1312 -126 c-3
-3 -12 -4 -19 -1 -8 3 -5 6 6 6 11 1 17 -2 13 -5z m3628 -174 c3 -6 -1 -7 -9
-4 -18 7 -21 14 -7 14 6 0 13 -4 16 -10z m325 -10 c0 -5 -10 -10 -22 -10 -19
0 -20 2 -8 10 19 13 30 13 30 0z m2277 -66 c-3 -3 -12 -4 -19 -1 -8 3 -5 6 6
6 11 1 17 -2 13 -5z m-67 -14 c0 -5 -4 -10 -9 -10 -6 0 -13 5 -16 10 -3 6 1
10 9 10 9 0 16 -4 16 -10z m150 0 c0 -5 -3 -10 -7 -10 -5 0 -19 -3 -33 -6 -24
-6 -25 -6 -5 9 23 19 45 22 45 7z m-180 -20 c0 -5 -4 -10 -10 -10 -5 0 -10 5
-10 10 0 6 5 10 10 10 6 0 10 -4 10 -10z m-2740 -70 c0 -5 -4 -10 -10 -10 -5
0 -10 5 -10 10 0 6 5 10 10 10 6 0 10 -4 10 -10z m43 -7 c-7 -2 -19 -2 -25 0
-7 3 -2 5 12 5 14 0 19 -2 13 -5z m-43 -23 c0 -5 -7 -10 -15 -10 -8 0 -15 5
-15 10 0 6 7 10 15 10 8 0 15 -4 15 -10z m-3735 -31 c-4 -5 -13 -9 -22 -9 -13
0 -13 3 -3 15 13 15 35 11 25 -6z m185 1 c0 -5 -5 -10 -11 -10 -5 0 -7 5 -4
10 3 6 8 10 11 10 2 0 4 -4 4 -10z m3660 -70 c0 -5 -2 -10 -4 -10 -3 0 -8 5
-11 10 -3 6 -1 10 4 10 6 0 11 -4 11 -10z m-3307 -17 c-7 -2 -21 -2 -30 0 -10
3 -4 5 12 5 17 0 24 -2 18 -5z m3817 -3 c0 -5 -5 -10 -11 -10 -5 0 -7 5 -4 10
3 6 8 10 11 10 2 0 4 -4 4 -10z m-3640 -8 c0 -5 -7 -9 -15 -9 -8 0 -15 4 -15
9 0 4 7 8 15 8 8 0 15 -4 15 -8z m3180 -2 c0 -5 -4 -10 -10 -10 -5 0 -10 5
-10 10 0 6 5 10 10 10 6 0 10 -4 10 -10z m0 -34 c-7 -7 -13 -7 -20 0 -6 6 -3
10 10 10 13 0 16 -4 10 -10z m494 -80 c-10 -8 -21 -12 -24 -9 -3 2 4 11 14 19
11 7 22 12 25 9 2 -3 -4 -12 -15 -19z m1496 -193 c-8 -3 -18 -10 -21 -16 -4
-5 -13 -6 -20 -2 -9 6 -8 10 7 16 10 4 26 8 34 8 13 -1 13 -1 0 -6z m-1480
-37 c0 -3 -4 -8 -10 -11 -5 -3 -10 -1 -10 4 0 6 5 11 10 11 6 0 10 -2 10 -4z
m1310 -6 c0 -5 -5 -10 -11 -10 -5 0 -7 5 -4 10 3 6 8 10 11 10 2 0 4 -4 4 -10z
m-1305 -40 c-3 -5 -12 -10 -18 -10 -7 0 -6 4 3 10 19 12 23 12 15 0z m1059 -5
c-4 -8 -8 -15 -10 -15 -2 0 -4 7 -4 15 0 8 4 15 10 15 5 0 7 -7 4 -15z m-934
-34 c0 -19 -12 -41 -20 -36 -10 6 -1 45 11 45 5 0 9 -4 9 -9z m50 5 c0 -2 -8
-10 -17 -17 -16 -13 -17 -12 -4 4 13 16 21 21 21 13z m-83 -26 c-1 -20 -9 -25
-20 -13 -4 3 -2 12 4 20 15 18 18 17 16 -7z m138 -10 c3 -5 1 -10 -4 -10 -6 0
-11 5 -11 10 0 6 2 10 4 10 3 0 8 -4 11 -10z m182 4 c-3 -3 -12 -4 -19 -1 -8
3 -5 6 6 6 11 1 17 -2 13 -5z"/>
<path d="M4925 7500 c-3 -5 -1 -10 4 -10 6 0 11 5 11 10 0 6 -2 10 -4 10 -3 0
-8 -4 -11 -10z"/>
<path d="M7984 7438 c-3 -5 28 -7 68 -7 75 2 69 6 -15 11 -27 2 -51 0 -53 -4z"/>
<path d="M8153 7433 c9 -2 25 -2 35 0 9 3 1 5 -18 5 -19 0 -27 -2 -17 -5z"/>
<path d="M8298 7423 c12 -2 30 -2 40 0 9 3 -1 5 -23 4 -22 0 -30 -2 -17 -4z"/>
<path d="M5760 7294 c0 -8 5 -12 10 -9 6 4 8 11 5 16 -9 14 -15 11 -15 -7z"/>
<path d="M5720 7296 c0 -2 7 -6 15 -10 8 -3 15 -1 15 4 0 6 -7 10 -15 10 -8 0
-15 -2 -15 -4z"/>
<path d="M5800 7290 c0 -5 7 -7 15 -4 8 4 15 8 15 10 0 2 -7 4 -15 4 -8 0 -15
-4 -15 -10z"/>
<path d="M5691 7279 c-1 -9 8 -19 19 -22 11 -3 20 -1 20 4 0 5 -6 9 -14 9 -8
0 -17 6 -19 13 -4 7 -6 6 -6 -4z"/>
<path d="M5050 7270 c0 -5 5 -10 10 -10 6 0 10 5 10 10 0 6 -4 10 -10 10 -5 0
-10 -4 -10 -10z"/>
<path d="M5500 7270 c0 -5 5 -10 10 -10 6 0 10 5 10 10 0 6 -4 10 -10 10 -5 0
-10 -4 -10 -10z"/>
<path d="M5932 7264 c-7 -8 -8 -14 -3 -14 10 0 25 19 20 25 -2 1 -10 -3 -17
-11z"/>
<path d="M6066 7271 c-19 -7 -19 -8 0 -13 13 -3 21 0 21 8 0 8 -1 14 -1 13 -1
0 -10 -4 -20 -8z"/>
<path d="M4360 7255 c0 -9 7 -18 15 -21 8 -4 12 -10 9 -15 -3 -5 0 -9 5 -9 6
0 11 4 11 8 0 5 11 14 25 20 14 6 25 16 25 22 0 15 -34 8 -41 -9 -4 -11 -8
-10 -21 3 -21 20 -28 20 -28 1z"/>
<path d="M6185 7261 c-3 -2 -2 -7 0 -11 6 -10 45 -1 45 11 0 8 -37 8 -45 0z"/>
<path d="M5390 7250 c0 -5 6 -10 14 -10 8 0 18 5 21 10 3 6 -3 10 -14 10 -12
0 -21 -4 -21 -10z"/>
<path d="M6000 7256 c0 -2 7 -9 15 -16 12 -10 15 -10 15 4 0 9 -7 16 -15 16
-8 0 -15 -2 -15 -4z"/>
<path d="M6148 7253 c7 -3 16 -2 19 1 4 3 -2 6 -13 5 -11 0 -14 -3 -6 -6z"/>
<path d="M6557 7253 c-12 -12 -7 -33 7 -33 8 0 13 7 12 15 -3 19 -11 27 -19
18z"/>
<path d="M4327 7222 c-22 -24 -24 -50 -2 -32 8 7 12 16 9 21 -3 5 2 9 10 9 9
0 16 5 16 10 0 16 -15 12 -33 -8z"/>
<path d="M5168 7233 c6 -2 18 -2 25 0 6 3 1 5 -13 5 -14 0 -19 -2 -12 -5z"/>
<path d="M6381 7213 c-16 -17 -12 -23 11 -14 10 3 14 11 10 17 -5 9 -11 8 -21
-3z"/>
<path d="M6503 7223 c-7 -2 -13 -8 -13 -13 0 -10 38 -1 46 11 6 10 -13 11 -33
2z"/>
<path d="M4870 7210 c-13 -8 -12 -10 3 -10 9 0 17 5 17 10 0 12 -1 12 -20 0z"/>
<path d="M5228 7213 c7 -3 16 -2 19 1 4 3 -2 6 -13 5 -11 0 -14 -3 -6 -6z"/>
<path d="M5840 7209 c0 -5 5 -7 10 -4 6 3 10 8 10 11 0 2 -4 4 -10 4 -5 0 -10
-5 -10 -11z"/>
<path d="M6250 7210 c0 -5 5 -10 10 -10 6 0 10 5 10 10 0 6 -4 10 -10 10 -5 0
-10 -4 -10 -10z"/>
<path d="M6315 7210 c3 -5 8 -10 11 -10 2 0 4 5 4 10 0 6 -5 10 -11 10 -5 0
-7 -4 -4 -10z"/>
<path d="M6456 7194 c-17 -12 -17 -14 -4 -14 9 0 20 5 23 11 11 17 2 18 -19 3z"/>
<path d="M6718 7203 c7 -3 16 -2 19 1 4 3 -2 6 -13 5 -11 0 -14 -3 -6 -6z"/>
<path d="M4410 7193 c0 -5 8 -17 17 -28 14 -18 15 -18 9 -2 -3 10 -6 23 -6 28
0 5 -4 9 -10 9 -5 0 -10 -3 -10 -7z"/>
<path d="M4611 7184 c0 -11 3 -14 6 -6 3 7 2 16 -1 19 -3 4 -6 -2 -5 -13z"/>
<path d="M5020 7190 c0 -5 5 -10 11 -10 5 0 7 5 4 10 -3 6 -8 10 -11 10 -2 0
-4 -4 -4 -10z"/>
<path d="M4716 7175 c-9 -26 -7 -32 5 -12 6 10 9 21 6 23 -2 3 -7 -2 -11 -11z"/>
<path d="M6750 7173 c0 -7 4 -14 10 -18 5 -3 7 -13 4 -23 -5 -14 -4 -14 6 2
10 14 9 21 -4 34 -9 10 -16 12 -16 5z"/>
<path d="M4885 7160 c3 -5 8 -10 11 -10 2 0 4 5 4 10 0 6 -5 10 -11 10 -5 0
-7 -4 -4 -10z"/>
<path d="M6857 7155 c-17 -12 -14 -13 24 -10 24 1 45 8 47 14 5 16 -49 13 -71
-4z"/>
<path d="M6990 7145 c0 -8 5 -15 11 -15 5 0 7 4 4 10 -3 6 1 7 9 4 9 -3 16
-10 16 -15 0 -5 5 -9 11 -9 6 0 9 6 6 14 -3 8 -1 17 6 20 7 2 -5 5 -25 5 -28
1 -38 -3 -38 -14z"/>
<path d="M7085 7150 c27 -12 35 -12 35 0 0 6 -12 10 -27 9 -25 0 -26 -1 -8 -9z"/>
<path d="M3653 7133 c9 -2 23 -2 30 0 6 3 -1 5 -18 5 -16 0 -22 -2 -12 -5z"/>
<path d="M6820 7121 c0 -4 11 -6 25 -3 14 2 25 6 25 8 0 2 -11 4 -25 4 -14 0
-25 -4 -25 -9z"/>
<path d="M6930 7121 c-17 -5 -7 -8 35 -8 42 0 53 2 35 7 -31 10 -39 10 -70 1z"/>
<path d="M7102 7118 c-7 -7 -12 -16 -12 -20 0 -15 15 -8 28 12 13 22 3 27 -16
8z"/>
<path d="M6956 7092 c-2 -4 10 -9 27 -9 26 -2 28 0 12 7 -26 11 -33 12 -39 2z"/>
<path d="M7050 7080 c0 -5 5 -10 10 -10 6 0 10 5 10 10 0 6 -4 10 -10 10 -5 0
-10 -4 -10 -10z"/>
<path d="M7200 7070 c0 -5 7 -10 16 -10 8 0 12 5 9 10 -3 6 -10 10 -16 10 -5
0 -9 -4 -9 -10z"/>
<path d="M6910 7060 c0 -5 5 -10 10 -10 6 0 10 5 10 10 0 6 -4 10 -10 10 -5 0
-10 -4 -10 -10z"/>
<path d="M6978 7063 c7 -3 16 -2 19 1 4 3 -2 6 -13 5 -11 0 -14 -3 -6 -6z"/>
<path d="M7327 7063 c-12 -12 -7 -22 8 -17 8 4 15 10 15 15 0 11 -14 12 -23 2z"/>
<path d="M7240 7049 c0 -5 5 -7 10 -4 6 3 10 8 10 11 0 2 -4 4 -10 4 -5 0 -10
-5 -10 -11z"/>
<path d="M7320 7010 c-20 -12 -9 -21 18 -13 12 3 19 9 16 14 -7 11 -15 11 -34
-1z"/>
<path d="M7388 7013 c6 -2 18 -2 25 0 6 3 1 5 -13 5 -14 0 -19 -2 -12 -5z"/>
<path d="M7425 6990 c-10 -11 -16 -20 -13 -20 3 0 15 9 28 20 13 11 19 20 13
20 -5 0 -18 -9 -28 -20z"/>
<path d="M7330 6984 c0 -3 6 -12 14 -19 12 -12 15 -12 18 3 4 12 -1 18 -13 19
-11 1 -19 -1 -19 -3z"/>
<path d="M7288 6973 c7 -3 16 -2 19 1 4 3 -2 6 -13 5 -11 0 -14 -3 -6 -6z"/>
<path d="M3905 6880 c3 -5 8 -10 11 -10 2 0 4 5 4 10 0 6 -5 10 -11 10 -5 0
-7 -4 -4 -10z"/>
<path d="M8765 6835 c-230 -38 -396 -155 -494 -352 -60 -122 -63 -210 -11
-319 58 -120 182 -211 347 -256 104 -28 317 -30 413 -5 216 57 378 217 411
406 41 229 -156 481 -409 527 -93 16 -152 16 -257 -1z m256 -15 c166 -32 352
-190 375 -320 5 -30 0 -25 -33 34 -38 68 -68 95 -121 108 -17 5 -23 1 -28 -17
-3 -13 -3 -29 1 -34 12 -20 -5 -11 -40 21 -19 17 -35 36 -34 42 0 7 2 7 5 -1
4 -8 13 -9 35 -1 29 10 30 11 12 31 -17 20 -17 20 0 14 11 -4 16 -3 12 3 -3 6
0 10 7 10 20 0 -24 27 -73 45 -24 9 -52 21 -63 27 -26 14 -202 30 -256 23 -25
-4 -52 -11 -60 -16 -11 -8 -8 -9 13 -6 15 2 27 0 27 -4 0 -5 21 -9 48 -9 37
-1 43 -3 29 -11 -9 -6 -15 -14 -12 -20 4 -5 0 -9 -7 -9 -10 0 -10 -2 1 -9 7
-5 10 -14 7 -20 -10 -15 -29 -14 -20 2 4 6 -2 3 -14 -7 -20 -17 -33 -10 -14 8
7 8 11 56 4 56 -2 0 -10 -7 -18 -15 -8 -8 -21 -12 -29 -9 -11 5 -15 -2 -16
-22 0 -16 -2 -37 -4 -47 -2 -9 1 -15 6 -11 5 3 9 18 9 35 0 16 5 29 10 29 9 0
14 -17 13 -48 -1 -9 5 -11 15 -7 71 29 175 36 236 15 19 -6 41 -8 47 -4 8 4 9
3 5 -4 -3 -6 3 -16 15 -22 40 -22 13 -19 -32 3 -66 33 -176 36 -253 7 -107
-41 -185 -133 -211 -252 -7 -34 -14 -57 -14 -50 -1 9 -10 12 -28 8 -16 -3 -51
-8 -80 -10 -43 -4 -51 -3 -46 9 3 8 0 15 -6 15 -11 0 -13 -7 -13 -35 0 -32 2
-34 30 -25 15 4 40 11 55 15 24 5 27 4 15 -8 -7 -8 -19 -12 -25 -10 -14 6 -16
2 -7 -21 3 -8 12 -12 20 -9 8 3 14 0 14 -6 0 -6 -7 -11 -15 -11 -8 0 -15 -5
-15 -11 0 -5 -5 -7 -11 -4 -6 4 -8 14 -5 22 9 23 -3 35 -19 19 -8 -8 -15 -30
-17 -49 -1 -20 -6 -33 -11 -30 -5 3 -7 19 -5 35 3 16 1 31 -3 33 -8 5 -15 -18
-25 -90 -4 -27 -15 -62 -25 -76 l-18 -26 47 -44 c65 -62 103 -86 146 -94 20
-4 38 -11 41 -15 3 -5 14 -6 26 -3 16 4 17 8 7 14 -11 7 -10 9 1 9 8 0 22 -7
32 -16 9 -8 42 -19 73 -23 69 -9 84 -21 27 -21 -134 0 -306 66 -397 152 -52
49 -103 121 -73 102 9 -5 10 -2 4 12 -5 10 -9 29 -9 42 -1 12 -4 22 -8 22 -4
0 -4 37 -1 83 8 121 51 207 156 311 64 64 71 73 33 45 -84 -60 -196 -221 -196
-281 0 -10 -6 -18 -12 -18 -9 0 -8 -4 2 -10 13 -8 12 -10 -3 -10 -20 0 -20 4
15 97 68 185 252 328 479 372 62 12 207 13 270 1z m174 -100 c3 -5 2 -10 -4
-10 -5 0 -13 5 -16 10 -3 6 -2 10 4 10 5 0 13 -4 16 -10z m-119 -78 c64 -33
100 -68 129 -125 21 -43 23 -53 10 -55 -18 -4 -20 -19 -4 -24 17 -6 30 -107
19 -148 -10 -36 -65 -130 -76 -130 -3 0 2 12 12 28 38 58 48 89 50 157 l2 70
-6 -62 c-8 -69 -37 -112 -60 -87 -7 8 -8 15 -2 19 6 3 10 11 10 16 0 6 -4 8
-9 4 -5 -3 -12 -1 -16 5 -3 5 0 10 7 10 10 0 14 12 13 40 -1 22 3 40 8 40 5 0
7 9 4 20 -3 11 -1 18 4 14 13 -8 11 10 -6 42 -14 28 -85 99 -85 86 0 -4 -6 0
-13 9 -30 40 -190 58 -226 25 -9 -9 -32 -19 -50 -22 -19 -4 -28 -10 -21 -14 7
-5 1 -10 -17 -14 -15 -4 -36 -15 -45 -23 -12 -11 -18 -12 -18 -4 0 26 105 117
155 134 67 23 175 18 231 -11z m105 -48 l37 -36 23 31 c12 17 26 31 31 31 31
0 102 -113 122 -193 4 -15 11 -25 16 -22 18 11 11 -99 -10 -161 -24 -69 -85
-158 -102 -148 -8 5 -9 2 -5 -10 4 -9 3 -14 -2 -11 -5 3 -16 -3 -23 -13 -7
-11 -17 -21 -23 -23 -5 -2 -9 -7 -7 -11 1 -5 -1 -7 -5 -7 -20 3 -34 -2 -28
-10 3 -6 -5 -15 -17 -21 -22 -11 -22 -10 -4 4 14 12 16 16 5 16 -8 0 0 9 16
19 17 10 45 35 64 54 19 20 39 33 44 30 6 -3 7 -1 3 5 -4 6 -14 8 -24 5 -11
-4 -6 6 14 28 31 34 56 81 68 129 7 24 6 24 -8 6 -9 -11 -16 -28 -16 -38 0
-19 -8 -22 -27 -10 -27 17 -12 122 17 122 14 0 12 -11 -6 -31 -9 -10 -14 -25
-10 -34 5 -15 9 -15 36 2 26 15 30 23 30 64 0 55 -18 112 -33 102 -6 -4 -7 -1
-3 6 10 16 -14 73 -28 66 -6 -3 -18 -8 -28 -11 -9 -3 -19 -17 -22 -30 -9 -33
-22 -30 -42 8 -9 17 -37 53 -61 80 -53 56 -46 65 8 12z m-201 -39 c0 -18 -14
-19 -42 -4 -11 6 -23 8 -26 4 -9 -9 19 -25 47 -25 l23 0 -3 -137 c-2 -76 0
-155 5 -175 8 -37 8 -38 -22 -38 -17 0 -34 -4 -37 -10 -7 -12 -26 -14 -24 -2
4 21 -2 42 -11 42 -5 0 -10 -13 -10 -30 l0 -30 60 0 61 0 -2 118 c-2 162 1
202 18 202 8 0 11 5 8 10 -4 6 -11 8 -16 5 -5 -4 -9 -3 -10 2 -4 48 -3 83 4
83 4 0 7 -12 7 -27 0 -21 3 -24 9 -14 5 8 7 21 4 29 -5 12 -3 12 16 1 18 -12
27 -35 22 -63 -1 -5 6 -6 15 -2 15 6 15 4 3 -10 -13 -16 -12 -16 11 -4 23 12
24 12 10 -4 -23 -28 -23 -57 0 -63 11 -3 20 -14 20 -24 0 -11 6 -19 13 -20 10
0 10 -2 0 -6 -7 -2 -13 -9 -13 -14 0 -6 6 -7 13 -4 6 4 5 1 -3 -7 -9 -7 -15
-25 -15 -40 1 -16 -2 -28 -5 -28 -3 0 -7 -10 -7 -22 -1 -13 -7 -24 -13 -26 -5
-2 -10 -9 -10 -17 0 -7 -18 -24 -40 -39 -30 -20 -53 -26 -97 -27 -48 -1 -53
-3 -28 -9 29 -7 29 -8 4 -9 -31 -1 -83 19 -119 46 -14 10 -38 27 -55 38 l-29
18 32 -40 c17 -22 29 -43 26 -46 -15 -15 86 -51 161 -57 l80 -7 -66 -1 c-111
-3 -203 42 -259 126 -20 30 -30 58 -30 81 l1 36 13 -31 c18 -40 43 -58 32 -23
-27 87 -28 113 -6 172 17 45 26 58 39 53 69 -23 91 -32 91 -38 0 -11 -28 -10
-34 1 -3 5 -20 14 -37 20 l-31 11 6 -38 c3 -20 5 -39 6 -41 0 -2 11 -1 25 1
13 3 23 2 21 -1 -3 -4 6 -11 19 -17 20 -10 23 -9 20 7 -2 11 1 16 9 13 17 -7
30 21 30 66 1 27 5 35 19 34 13 -1 17 6 17 32 0 33 1 34 40 34 29 0 40 -4 40
-15z m-314 -151 c-10 -34 -11 -34 -14 -9 -4 32 5 58 17 51 4 -3 3 -22 -3 -42z
m614 1 c-7 -9 -15 -13 -19 -10 -3 3 1 10 9 15 21 14 24 12 10 -5z m47 9 c-3
-3 -12 -4 -19 -1 -8 3 -5 6 6 6 11 1 17 -2 13 -5z m-1068 -142 c0 -41 -3 -51
-9 -37 -12 29 -12 108 0 100 6 -3 10 -32 9 -63z m994 3 c-3 -9 -8 -14 -10 -11
-3 3 -2 9 2 15 9 16 15 13 8 -4z m-13 -70 c-7 -9 -15 -13 -17 -11 -7 7 7 26
19 26 6 0 6 -6 -2 -15z m-960 -30 c0 -5 -5 -3 -10 5 -5 8 -10 20 -10 25 0 6 5
3 10 -5 5 -8 10 -19 10 -25z m518 -98 c36 -17 66 -22 132 -22 102 0 155 21
228 89 43 40 48 43 47 22 0 -12 -8 -30 -17 -40 -10 -10 -18 -21 -18 -25 0 -4
-16 -15 -35 -24 -33 -16 -47 -37 -25 -37 6 0 10 -7 10 -15 0 -8 5 -15 11 -15
8 0 8 -5 -1 -15 -17 -21 -33 -19 -48 6 -17 26 -28 18 -13 -10 9 -16 7 -23 -11
-35 -30 -21 -19 -20 38 4 26 11 52 19 58 17 20 -7 -120 -55 -191 -66 -90 -14
-103 -14 -83 -1 11 7 -1 10 -40 10 l-55 0 30 16 c40 20 40 22 9 22 -37 0 -53
24 -47 73 3 22 1 39 -4 39 -6 0 -31 18 -56 40 -40 36 -46 38 -51 22 -4 -11 -4
-27 0 -36 3 -9 1 -16 -5 -16 -6 0 -11 -7 -11 -16 0 -8 -4 -13 -9 -10 -5 3 -9
-6 -8 -22 0 -50 -3 -62 -18 -62 -24 0 -38 36 -24 63 7 12 18 27 25 32 16 13
45 110 36 121 -4 5 17 -13 46 -39 29 -27 74 -58 100 -70z m463 46 c13 -16 12
-17 -3 -4 -10 7 -18 15 -18 17 0 8 8 3 21 -13z m-574 -79 c-3 -3 -12 -4 -19
-1 -8 3 -5 6 6 6 11 1 17 -2 13 -5z m-10 -56 c-3 -7 -5 -2 -5 12 0 14 2 19 5
13 2 -7 2 -19 0 -25z"/>
<path d="M8534 6714 c-18 -14 -18 -15 4 -4 12 6 22 13 22 15 0 8 -5 6 -26 -11z"/>
<path d="M8322 6423 c-6 -2 -9 -9 -6 -15 4 -6 2 -13 -5 -17 -17 -11 -24 -112
-12 -159 7 -24 21 -46 33 -53 18 -9 20 -9 15 4 -4 10 1 17 11 20 16 4 16 5 0
6 -11 1 -15 6 -12 16 4 8 11 12 16 9 6 -4 5 3 -1 15 -7 12 -8 21 -2 21 5 0 8
15 6 33 -4 32 -25 128 -28 126 -1 0 -8 -3 -15 -6z"/>
<path d="M8343 6160 c-13 -5 -23 -11 -23 -14 0 -7 40 6 46 15 6 10 6 10 -23
-1z"/>
<path d="M8308 6125 c6 -11 32 -40 59 -65 l48 -45 -44 47 c-28 30 -41 51 -36
60 5 7 5 10 0 6 -4 -4 -15 -2 -23 5 -13 10 -14 9 -4 -8z"/>
<path d="M9180 6514 c0 -6 7 -19 16 -30 14 -18 14 -18 3 6 -14 31 -19 36 -19
24z"/>
<path d="M9286 6542 c-3 -5 1 -9 9 -9 8 0 15 4 15 9 0 4 -4 8 -9 8 -6 0 -12
-4 -15 -8z"/>
<path d="M9393 6295 c-3 -9 -3 -18 -1 -21 3 -3 8 4 11 16 6 23 -1 27 -10 5z"/>
<path d="M9325 6261 c-3 -5 -1 -12 5 -16 5 -3 10 1 10 9 0 18 -6 21 -15 7z"/>
<path d="M9355 6196 c-40 -80 -42 -88 -13 -46 26 37 53 98 47 104 -2 2 -17
-24 -34 -58z"/>
<path d="M8780 6370 c0 -6 7 -10 15 -10 8 0 15 2 15 4 0 2 -7 6 -15 10 -8 3
-15 1 -15 -4z"/>
<path d="M8790 6331 c0 -10 19 -25 25 -20 1 2 -3 10 -11 17 -8 7 -14 8 -14 3z"/>
<path d="M8708 6194 c24 -35 50 -59 57 -53 2 3 -15 23 -37 44 -37 36 -40 37
-20 9z"/>
<path d="M8920 6201 c0 -10 39 -11 45 -2 2 5 -7 9 -20 9 -14 0 -25 -3 -25 -7z"/>
<path d="M9150 6118 c-25 -22 -31 -31 -15 -19 51 36 69 51 64 55 -2 2 -24 -14
-49 -36z"/>
<path d="M8602 6010 c0 -14 2 -19 5 -12 2 6 2 18 0 25 -3 6 -5 1 -5 -13z"/>
<path d="M8806 6001 c9 -17 17 -31 19 -31 8 0 -9 40 -21 51 -10 8 -10 3 2 -20z"/>
<path d="M8899 5981 c6 -10 7 -22 3 -26 -4 -5 -2 -5 5 -2 13 8 6 47 -9 47 -5
0 -4 -8 1 -19z"/>
<path d="M4187 6243 c-12 -12 -7 -22 8 -17 8 4 15 10 15 15 0 11 -14 12 -23 2z"/>
<path d="M6111 6134 c0 -11 3 -14 6 -6 3 7 2 16 -1 19 -3 4 -6 -2 -5 -13z"/>
<path d="M8150 6116 c0 -2 7 -9 15 -16 9 -7 15 -8 15 -2 0 5 -7 12 -15 16 -8
3 -15 4 -15 2z"/>
<path d="M3871 5983 c0 -4 4 -17 9 -28 8 -19 9 -19 9 2 1 12 -3 25 -9 28 -5 3
-10 3 -9 -2z"/>
<path d="M6598 5933 c7 -3 16 -2 19 1 4 3 -2 6 -13 5 -11 0 -14 -3 -6 -6z"/>
<path d="M6666 5902 c-2 -4 -1 -14 3 -21 6 -9 10 -7 14 8 5 20 -7 29 -17 13z"/>
<path d="M2760 5889 c0 -5 5 -7 10 -4 6 3 10 8 10 11 0 2 -4 4 -10 4 -5 0 -10
-5 -10 -11z"/>
<path d="M6633 5893 c-15 -5 -17 -23 -4 -23 5 0 11 7 15 15 3 8 4 15 3 14 -1
0 -8 -3 -14 -6z"/>
<path d="M3065 5819 c7 -11 35 -12 35 -1 0 4 -9 8 -20 9 -11 1 -18 -2 -15 -8z"/>
<path d="M3200 5811 c0 -5 -8 -12 -17 -14 -14 -4 -12 -5 5 -6 13 -1 22 5 22
14 0 8 -2 15 -5 15 -3 0 -5 -4 -5 -9z"/>
<path d="M3255 5790 c3 -5 8 -10 11 -10 2 0 4 5 4 10 0 6 -5 10 -11 10 -5 0
-7 -4 -4 -10z"/>
<path d="M3378 5763 c7 -3 16 -2 19 1 4 3 -2 6 -13 5 -11 0 -14 -3 -6 -6z"/>
<path d="M3660 5740 c0 -5 5 -10 10 -10 6 0 10 5 10 10 0 6 -4 10 -10 10 -5 0
-10 -4 -10 -10z"/>
<path d="M3630 5730 c0 -5 5 -10 10 -10 6 0 10 5 10 10 0 6 -4 10 -10 10 -5 0
-10 -4 -10 -10z"/>
<path d="M3590 5722 c0 -12 19 -26 26 -19 2 2 -2 10 -11 17 -9 8 -15 8 -15 2z"/>
<path d="M6818 5623 c7 -3 16 -2 19 1 4 3 -2 6 -13 5 -11 0 -14 -3 -6 -6z"/>
<path d="M6970 5607 c0 -10 8 -17 18 -17 9 0 13 4 7 8 -5 4 -13 11 -17 16 -5
5 -8 2 -8 -7z"/>
<path d="M7028 5573 c7 -3 16 -2 19 1 4 3 -2 6 -13 5 -11 0 -14 -3 -6 -6z"/>
<path d="M10201 5489 c1 -13 0 -31 -3 -39 -17 -49 -24 -91 -22 -141 2 -46 -1
-60 -20 -80 -12 -13 -25 -32 -29 -42 -3 -9 -18 -22 -32 -29 -14 -6 -24 -17
-21 -24 3 -7 -2 -15 -10 -18 -8 -3 -14 -12 -14 -21 0 -14 -14 -19 -47 -18 -7
1 -10 -3 -7 -8 2 -5 -6 -11 -20 -15 -13 -3 -27 -12 -30 -20 -3 -8 -13 -14 -23
-14 -16 0 -16 -2 -3 -11 12 -9 10 -10 -8 -6 -20 5 -22 3 -10 -11 11 -13 11
-14 0 -8 -8 5 -21 -1 -35 -16 -12 -14 -38 -31 -57 -38 -19 -8 -39 -20 -45 -27
-8 -11 -19 -8 -57 12 -53 28 -63 31 -51 13 4 -7 8 -19 8 -27 0 -18 -49 -71
-65 -71 -35 0 -212 -64 -264 -95 -62 -37 -172 -134 -219 -194 -16 -20 -37 -39
-48 -43 -10 -4 -19 -14 -19 -23 0 -11 -7 -14 -22 -11 -13 3 -77 8 -143 11 -66
3 -163 8 -215 11 -90 5 -96 4 -108 -16 -8 -12 -9 -19 -3 -15 6 3 11 -1 11 -10
0 -12 -9 -15 -35 -13 -19 1 -37 -1 -41 -5 -4 -4 18 -7 49 -7 46 0 57 3 62 19
5 18 13 19 98 14 51 -3 93 -7 95 -8 2 -2 0 -15 -4 -30 l-7 -28 -121 7 c-200
11 -866 55 -1096 72 -205 14 -323 16 -318 3 2 -3 -5 -13 -15 -23 -22 -22 -21
-96 1 -96 11 0 12 -3 3 -14 -13 -16 35 -23 209 -31 58 -3 125 -8 150 -12 25
-3 70 -7 100 -8 113 -5 267 -16 332 -25 37 -4 77 -6 88 -3 12 3 20 0 20 -7 0
-10 3 -10 14 -1 9 8 16 8 20 2 4 -5 2 -12 -3 -15 -15 -10 -815 41 -869 54 -29
8 -32 7 -21 -6 8 -10 34 -14 90 -14 51 0 79 -4 79 -11 0 -8 -22 -9 -72 -4 -51
5 -70 4 -63 -3 6 -6 37 -13 70 -15 l60 -4 -65 -1 c-123 -1 -126 -2 -110 -11 8
-6 18 -7 22 -5 4 3 13 2 20 -2 7 -4 30 -7 53 -5 22 1 96 -3 165 -8 250 -21
327 -27 450 -35 149 -10 176 -13 197 -25 26 -13 63 -15 63 -2 0 5 -8 7 -18 4
-10 -2 -25 3 -32 12 -12 15 -12 17 5 15 11 -1 27 -2 35 -1 13 1 13 2 0 11 -15
9 -13 11 13 14 6 0 16 11 22 24 5 12 18 22 27 22 22 0 23 -16 2 -24 -12 -4
-14 -14 -9 -36 5 -21 3 -30 -7 -31 -13 -1 35 -16 82 -25 20 -4 18 -2 -7 10
-40 18 -43 28 -5 21 15 -3 21 -2 15 1 -19 9 -16 24 4 17 12 -5 15 -2 11 9 -5
11 0 14 19 10 20 -4 24 -1 21 14 -2 16 3 19 32 17 31 -2 72 -2 245 -1 43 1
196 -20 203 -26 2 -3 1 -10 -4 -17 -5 -9 -57 -11 -215 -6 -148 4 -208 3 -206
-5 1 -6 -13 -15 -32 -20 -44 -12 -35 -19 36 -24 32 -2 69 -6 81 -9 13 -3 30
-1 37 5 9 7 54 7 154 -2 125 -10 141 -14 141 -30 0 -15 -8 -18 -50 -18 -36 0
-52 -4 -56 -15 -4 -8 -14 -15 -23 -16 -13 0 -12 -2 4 -10 13 -6 -22 -8 -105
-5 -155 6 -138 -9 20 -18 141 -8 268 -17 295 -21 11 -1 30 -3 43 -4 15 -1 21
-5 16 -13 -5 -8 0 -9 14 -6 16 5 22 2 22 -11 0 -34 112 -185 179 -242 59 -51
231 -149 260 -149 6 0 11 -11 11 -25 0 -14 9 -35 19 -46 12 -14 18 -33 17 -59
0 -21 2 -36 6 -34 4 2 9 0 13 -6 3 -5 1 -10 -5 -10 -6 0 -10 -8 -8 -17 1 -10
-1 -24 -5 -30 -5 -7 -5 -13 0 -13 4 0 1 -5 -7 -10 -13 -9 -13 -11 0 -20 10 -6
11 -10 3 -10 -16 0 -17 -54 -2 -83 21 -40 46 -55 108 -65 80 -12 137 6 195 62
49 47 181 224 202 270 37 80 72 131 95 137 22 5 20 8 -21 24 -74 30 -238 116
-353 185 -335 200 -422 329 -373 557 23 109 81 183 176 227 42 19 61 21 265
20 204 -2 231 -4 371 -33 113 -23 185 -32 286 -35 74 -2 144 -8 155 -15 12 -6
37 -11 56 -11 19 0 47 -4 63 -10 55 -18 249 -42 339 -41 52 0 130 9 185 21 52
11 140 30 195 41 54 12 109 25 122 30 25 9 25 11 -21 109 -14 30 -26 63 -26
73 0 9 -5 17 -11 17 -13 0 -179 139 -179 151 0 12 17 12 25 -1 3 -5 12 -7 20
-3 28 10 15 20 -24 18 -34 -2 -45 4 -95 52 -117 112 -162 191 -192 333 -10 47
-20 87 -24 90 -3 3 -16 26 -29 52 -13 26 -28 45 -33 41 -6 -3 -4 -9 3 -14 8
-5 10 -9 4 -9 -5 0 -11 -24 -11 -53 -2 -66 -34 -120 -78 -133 -20 -6 -32 -16
-34 -30 -3 -21 -42 -42 -42 -23 0 5 7 9 16 9 8 0 12 5 9 11 -5 7 -15 4 -32 -6
-20 -14 -31 -15 -49 -6 -19 8 -35 7 -77 -9 -58 -22 -71 -24 -62 -10 3 5 -11 2
-32 -6 -41 -18 -150 -27 -158 -13 -3 4 -13 5 -22 2 -9 -4 -14 -2 -10 3 3 6 -6
10 -21 9 -23 -1 -36 12 -90 95 -141 215 -146 221 -141 179z m861 -596 c10 -9
18 -11 18 -5 0 5 9 8 20 5 11 -3 20 -13 20 -22 0 -13 2 -13 9 -3 8 13 16 -5
27 -56 3 -15 -49 -29 -54 -14 -2 6 -10 8 -18 5 -13 -5 -13 -7 -2 -14 10 -7 9
-9 -4 -9 -9 0 -20 -5 -24 -12 -5 -8 -2 -9 9 -5 10 3 17 2 17 -3 0 -6 -11 -10
-25 -10 -19 0 -25 5 -25 21 0 13 4 18 12 13 7 -4 8 -3 4 4 -4 7 -14 12 -22 12
-24 0 -6 19 29 30 30 9 30 9 -9 4 -29 -4 -41 -2 -42 8 0 7 -2 22 -4 32 -2 10
3 21 11 24 9 3 11 0 6 -8 -5 -8 -3 -11 6 -8 8 3 13 11 12 17 -4 16 7 14 29 -6z
m118 -17 c0 -3 -4 -8 -10 -11 -5 -3 -10 -1 -10 4 0 6 5 11 10 11 6 0 10 -2 10
-4z m26 -39 c9 3 14 -1 13 -13 0 -11 -3 -14 -5 -7 -3 7 -12 9 -20 6 -9 -3 -14
1 -13 13 0 11 3 14 5 7 3 -7 12 -9 20 -6z m-240 -23 c-4 -9 -9 -15 -11 -12 -3
3 -3 13 1 22 4 9 9 15 11 12 3 -3 3 -13 -1 -22z m39 -25 c5 -22 3 -34 -6 -40
-23 -14 -31 -10 -14 7 10 10 12 20 7 28 -11 13 -12 47 -1 40 4 -2 11 -18 14
-35z m132 -15 c-3 -3 -12 -4 -19 -1 -8 3 -5 6 6 6 11 1 17 -2 13 -5z m-137
-69 c0 -8 -2 -15 -4 -15 -2 0 -6 7 -10 15 -3 8 -1 15 4 15 6 0 10 -7 10 -15z
m67 -1 c-3 -3 -12 -4 -19 -1 -8 3 -5 6 6 6 11 1 17 -2 13 -5z m-1970 -341 c-2
-16 -4 -3 -4 27 0 30 2 43 4 28 2 -16 2 -40 0 -55z m-1260 -59 c-3 -3 -12 -4
-19 -1 -8 3 -5 6 6 6 11 1 17 -2 13 -5z m1250 -116 c-2 -18 -4 -4 -4 32 0 36
2 50 4 33 2 -18 2 -48 0 -65z m-1457 62 c19 -6 7 -9 -45 -11 -42 -1 -56 -4
-35 -6 19 -3 39 -8 44 -13 6 -6 -12 -7 -45 -3 -64 7 -61 6 -53 27 5 12 18 16
58 15 28 -1 62 -5 76 -9z m80 -10 c0 -5 -8 -10 -17 -11 -15 0 -15 -2 2 -9 17
-7 14 -9 -14 -9 -27 -1 -31 2 -22 12 6 8 8 17 4 20 -3 4 6 7 20 7 15 0 27 -4
27 -10z m185 -10 c4 -6 -6 -10 -22 -11 l-28 -1 25 -7 c22 -6 20 -8 -19 -13
-24 -4 -53 -3 -65 2 -15 6 -17 9 -5 9 9 1 19 8 23 16 6 17 81 21 91 5z m145
-13 c0 -5 -16 -7 -35 -5 -24 3 -35 0 -35 -9 0 -7 -7 -13 -16 -13 -13 0 -14 3
-5 13 6 8 8 17 4 21 -4 4 14 6 40 5 26 -2 47 -7 47 -12z m1037 -169 c-3 -7 -5
-2 -5 12 0 14 2 19 5 13 2 -7 2 -19 0 -25z"/>
<path d="M7266 5392 c-3 -4 4 -9 15 -9 23 -2 25 3 4 10 -8 4 -16 3 -19 -1z"/>
<path d="M8790 5385 c-7 -8 -9 -15 -6 -15 4 0 14 7 22 15 9 8 11 15 6 15 -5 0
-15 -7 -22 -15z"/>
<path d="M7256 5351 c-3 -5 1 -12 10 -15 20 -8 29 -1 19 13 -8 13 -22 14 -29
2z"/>
<path d="M8655 5340 c-3 -5 1 -10 10 -10 9 0 13 5 10 10 -3 6 -8 10 -10 10 -2
0 -7 -4 -10 -10z"/>
<path d="M8758 5343 c6 -2 18 -2 25 0 6 3 1 5 -13 5 -14 0 -19 -2 -12 -5z"/>
<path d="M7432 5328 c5 -15 28 -23 28 -10 0 5 -7 13 -16 16 -10 4 -14 1 -12
-6z"/>
<path d="M7288 5293 c7 -3 16 -2 19 1 4 3 -2 6 -13 5 -11 0 -14 -3 -6 -6z"/>
<path d="M7415 5290 c-3 -5 1 -10 10 -10 9 0 13 5 10 10 -3 6 -8 10 -10 10 -2
0 -7 -4 -10 -10z"/>
<path d="M8010 5255 c-14 -16 -3 -20 19 -6 8 5 9 11 3 15 -5 3 -15 -1 -22 -9z"/>
<path d="M7925 5250 c-3 -5 1 -10 9 -10 9 0 16 5 16 10 0 6 -4 10 -9 10 -6 0
-13 -4 -16 -10z"/>
<path d="M7468 5233 c6 -2 18 -2 25 0 6 3 1 5 -13 5 -14 0 -19 -2 -12 -5z"/>
<path d="M7850 5230 c0 -5 5 -10 11 -10 5 0 7 5 4 10 -3 6 -8 10 -11 10 -2 0
-4 -4 -4 -10z"/>
<path d="M7610 5220 c-8 -5 -10 -10 -5 -10 6 0 17 5 25 10 8 5 11 10 5 10 -5
0 -17 -5 -25 -10z"/>
<path d="M7758 5223 c7 -3 16 -2 19 1 4 3 -2 6 -13 5 -11 0 -14 -3 -6 -6z"/>
<path d="M7577 5166 c-4 -10 -1 -13 9 -9 7 3 14 9 14 14 0 14 -17 10 -23 -5z"/>
<path d="M8056 5155 c-3 -8 -1 -15 4 -15 6 0 10 7 10 15 0 8 -2 15 -4 15 -2 0
-6 -7 -10 -15z"/>
<path d="M11264 5116 c5 -14 2 -17 -9 -12 -24 9 -18 -1 30 -48 25 -25 46 -55
48 -67 5 -31 99 -62 117 -37 3 3 28 -4 55 -18 55 -26 75 -30 75 -13 0 5 -4 8
-9 5 -4 -3 -26 9 -47 27 -21 18 -61 41 -89 52 -66 24 -92 41 -139 90 -22 22
-36 32 -32 21z"/>
<path d="M11583 4752 c0 -15 47 -66 54 -59 6 7 -10 46 -18 41 -5 -3 -14 -2
-20 2 -8 5 -8 9 1 14 9 5 8 9 -2 13 -9 3 -15 -1 -15 -11z"/>
<path d="M7333 4503 c9 -2 25 -2 35 0 9 3 1 5 -18 5 -19 0 -27 -2 -17 -5z"/>
<path d="M7468 4493 c7 -3 16 -2 19 1 4 3 -2 6 -13 5 -11 0 -14 -3 -6 -6z"/>
<path d="M7598 4483 c6 -2 18 -2 25 0 6 3 1 5 -13 5 -14 0 -19 -2 -12 -5z"/>
<path d="M7648 4483 c7 -3 16 -2 19 1 4 3 -2 6 -13 5 -11 0 -14 -3 -6 -6z"/>
<path d="M7778 4473 c6 -2 18 -2 25 0 6 3 1 5 -13 5 -14 0 -19 -2 -12 -5z"/>
<path d="M7913 4463 c9 -2 23 -2 30 0 6 3 -1 5 -18 5 -16 0 -22 -2 -12 -5z"/>
<path d="M8083 4453 c9 -2 23 -2 30 0 6 3 -1 5 -18 5 -16 0 -22 -2 -12 -5z"/>
<path d="M8245 4450 c-3 -5 -1 -10 4 -10 6 0 11 5 11 10 0 6 -2 10 -4 10 -3 0
-8 -4 -11 -10z"/>
<path d="M8280 4450 c0 -5 5 -10 11 -10 5 0 7 5 4 10 -3 6 -8 10 -11 10 -2 0
-4 -4 -4 -10z"/>
<path d="M8315 4440 c3 -5 8 -10 11 -10 2 0 4 5 4 10 0 6 -5 10 -11 10 -5 0
-7 -4 -4 -10z"/>
<path d="M8405 4440 c-3 -5 12 -8 34 -7 46 1 46 8 2 13 -17 2 -33 -1 -36 -6z"/>
<path d="M8358 4433 c6 -2 18 -2 25 0 6 3 1 5 -13 5 -14 0 -19 -2 -12 -5z"/>
<path d="M8439 4207 c5 -5 36 -11 68 -13 32 -2 101 -6 153 -10 52 -4 93 -4 90
-2 -3 3 -41 9 -85 12 -44 4 -115 10 -157 14 -48 5 -74 4 -69 -1z"/>
<path d="M7378 4173 c17 -2 47 -2 65 0 17 2 3 4 -33 4 -36 0 -50 -2 -32 -4z"/>
<path d="M7548 4163 c18 -2 45 -2 60 0 15 2 0 4 -33 4 -33 0 -45 -2 -27 -4z"/>
<path d="M7678 4153 c17 -2 47 -2 65 0 17 2 3 4 -33 4 -36 0 -50 -2 -32 -4z"/>
<path d="M7858 4143 c12 -2 32 -2 45 0 12 2 2 4 -23 4 -25 0 -35 -2 -22 -4z"/>
<path d="M7983 4133 c20 -2 54 -2 75 0 20 2 3 4 -38 4 -41 0 -58 -2 -37 -4z"/>
<path d="M8165 4110 c3 -5 22 -10 41 -10 19 0 34 5 34 10 0 6 -18 10 -41 10
-24 0 -38 -4 -34 -10z"/>
<path d="M8296 4102 c-3 -5 14 -9 37 -10 31 -2 38 0 27 8 -18 12 -57 13 -64 2z"/>
<path d="M8500 4100 c46 -9 157 -13 149 -6 -2 2 -47 6 -99 9 -68 4 -82 3 -50
-3z"/>
<path d="M8520 4071 c8 -5 18 -7 22 -5 4 3 8 0 8 -6 0 -14 40 -9 43 5 1 6 -18
11 -43 13 -31 2 -41 0 -30 -7z"/>
<path d="M10414 3595 c3 -8 0 -15 -7 -15 -7 0 -3 -6 9 -13 12 -6 52 -35 90
-64 38 -29 115 -78 172 -110 57 -32 98 -59 92 -61 -6 -2 -50 19 -98 47 l-87
51 -68 -72 -68 -73 6 -90 c4 -49 8 -109 10 -133 2 -25 0 -40 -6 -37 -5 4 -9
23 -10 43 0 20 -3 54 -7 75 -6 34 -8 36 -20 20 -33 -47 -122 -189 -122 -195 0
-5 -7 -8 -15 -8 -9 0 -15 -9 -15 -23 0 -26 -21 -77 -32 -77 -4 0 -5 -7 -2 -15
4 -8 1 -15 -5 -15 -6 0 -11 -6 -11 -14 0 -7 -6 -19 -14 -25 -8 -7 -17 -24 -21
-39 -4 -15 -18 -42 -32 -61 -32 -41 -35 -100 -9 -154 10 -21 21 -35 24 -32 3
3 15 -3 26 -14 23 -20 61 -32 116 -34 21 -1 45 -11 60 -24 13 -13 27 -23 32
-23 4 0 15 -14 23 -31 12 -23 13 -34 5 -44 -8 -10 -7 -23 4 -49 8 -20 11 -34
6 -31 -6 3 -10 1 -10 -5 0 -19 44 -65 65 -68 11 -2 25 -7 30 -12 6 -4 20 -6
33 -4 12 2 22 0 22 -5 0 -4 17 -8 38 -7 28 1 36 -3 34 -14 -3 -11 0 -12 8 -4
8 8 6 19 -5 40 -8 16 -15 34 -15 41 0 8 31 76 47 102 1 2 9 1 18 -3 13 -5 14
-9 3 -28 -7 -13 -13 -26 -14 -30 -1 -5 -3 -10 -4 -13 -1 -3 -3 -9 -4 -14 0 -5
-4 -12 -8 -16 -4 -4 -2 -19 3 -33 5 -14 7 -32 5 -39 -5 -11 9 -13 71 -11 l76
3 38 124 c21 68 41 126 45 130 8 7 7 2 -35 -140 -17 -58 -31 -109 -31 -113 0
-3 30 -6 68 -6 37 0 62 4 56 8 -7 4 -11 18 -10 32 1 14 -3 28 -8 32 -10 6 -10
13 -22 203 -3 61 -11 116 -18 124 -8 12 -8 13 2 7 16 -10 15 -7 -7 40 l-19 39
33 32 c22 22 44 33 62 33 24 -1 25 -2 11 -11 -25 -14 -22 -26 7 -33 14 -4 25
-11 25 -17 0 -8 -5 -7 -15 1 -12 10 -15 9 -15 -6 0 -15 -2 -16 -9 -5 -5 8 -14
10 -22 5 -10 -6 -7 -11 12 -18 21 -9 24 -15 18 -36 -4 -16 -7 -19 -8 -7 -1 9
-6 17 -12 17 -6 0 -9 -9 -6 -20 3 -11 1 -23 -4 -26 -5 -3 -6 -10 -3 -16 10
-15 10 -141 0 -156 -4 -7 -3 -12 1 -12 5 0 8 -13 7 -30 -1 -16 1 -30 6 -30 4
0 6 -15 3 -32 -2 -18 -1 -52 2 -75 l6 -43 240 0 c131 0 239 3 239 6 0 3 -18
99 -41 212 -22 114 -41 212 -42 219 -5 27 18 15 23 -13 l6 -29 19 35 c11 19
28 55 37 80 16 41 17 42 12 10 -7 -40 -38 -105 -55 -115 -13 -9 -7 -62 32
-254 16 -79 29 -146 29 -148 0 -1 56 -3 125 -3 69 0 125 2 125 5 0 3 -20 72
-44 153 -51 169 -62 217 -45 189 10 -17 12 -17 37 -1 28 19 109 64 152 86 14
7 34 21 44 30 11 10 26 18 33 18 13 0 192 66 258 95 106 47 201 85 212 85 7 0
13 5 13 10 0 6 8 10 18 10 33 0 109 31 109 44 0 7 -7 13 -16 12 -9 0 -15 5
-13 12 1 6 -1 11 -5 10 -5 -1 -42 10 -83 26 -41 15 -99 37 -127 47 -136 50
-169 64 -188 76 -11 7 -26 13 -33 13 -27 0 -252 108 -252 120 0 5 5 12 10 15
6 3 10 12 10 18 0 7 -7 4 -14 -5 -17 -23 -61 -22 -111 2 -22 11 -47 19 -56 20
-22 0 -109 82 -109 104 0 9 5 26 10 36 10 18 9 18 -25 5 -19 -8 -43 -15 -53
-15 -19 0 -255 112 -280 133 -34 27 -263 89 -377 101 -27 3 -68 9 -90 13 -73
12 -191 1 -180 -17 6 -9 -70 7 -96 20 -26 15 -42 12 -35 -5z m1116 -303 c0
-15 -2 -15 -10 -2 -13 20 -13 33 0 25 6 -3 10 -14 10 -23z m-440 -51 c0 -21
-47 -58 -80 -64 l-35 -6 35 18 c19 11 44 28 54 40 21 23 26 25 26 12z m-405
-61 c3 -5 1 -10 -4 -10 -6 0 -11 5 -11 10 0 6 2 10 4 10 3 0 8 -4 11 -10z
m265 -105 c284 -8 309 -10 322 -23 11 -11 10 -12 -6 -6 -15 6 -18 4 -13 -8 5
-15 -14 -17 -86 -9 -5 1 -5 7 -1 14 6 8 3 8 -9 -1 -13 -11 -68 -13 -261 -10
-235 3 -246 2 -260 -17 -8 -11 -18 -33 -22 -49 -4 -20 -9 -25 -14 -16 -18 29
31 120 64 120 8 0 17 4 20 8 3 5 31 7 63 5 32 -2 123 -6 203 -8z m-203 -88
c-1 -7 4 -11 10 -10 15 3 28 -41 17 -58 -4 -8 -3 -9 4 -5 7 4 12 2 12 -3 0
-13 -20 -14 -35 -3 -5 4 -10 18 -10 31 0 16 -8 26 -25 32 l-25 9 24 -20 c18
-15 19 -20 7 -20 -29 0 -31 1 -28 17 3 11 -2 14 -15 9 -13 -5 -12 -1 5 12 27
21 63 26 59 9z m167 -17 c5 -5 -8 -5 -29 0 -48 11 -60 23 -15 15 19 -3 39 -10
44 -15z m212 -19 c-4 -5 0 -12 6 -14 8 -3 6 -6 -4 -6 -18 -1 -24 10 -11 22 9
10 15 8 9 -2z m-156 -5 c0 -2 -7 -7 -16 -10 -8 -3 -12 -2 -9 4 6 10 25 14 25
6z m360 -22 c0 -34 -43 -90 -60 -79 -6 4 -9 1 -8 -5 4 -16 -35 -30 -53 -19
-11 7 -9 9 8 9 12 0 24 4 28 9 3 5 -8 9 -25 9 -17 -1 -34 2 -38 6 -4 5 2 7 13
6 66 -7 115 19 115 62 0 10 5 18 10 18 6 0 10 -7 10 -16z m-423 -9 c0 -8 -9
-15 -21 -15 -20 0 -20 0 0 15 10 8 19 15 20 15 0 0 1 -7 1 -15z m593 0 c0 -8
-4 -15 -10 -15 -5 0 -7 7 -4 15 4 8 8 15 10 15 2 0 4 -7 4 -15z m-690 -14
c-13 -25 -13 -31 1 -31 5 0 8 4 5 9 -3 5 5 16 19 25 14 9 25 12 25 7 0 -5 -4
-13 -10 -16 -5 -3 -10 -11 -10 -17 0 -6 7 -5 17 3 11 10 14 10 9 2 -4 -7 -3
-13 1 -13 5 0 15 6 22 13 10 10 11 9 6 -4 -4 -10 -2 -20 4 -24 7 -3 11 3 12
17 1 17 3 18 6 6 5 -18 23 -25 23 -9 0 5 7 12 16 15 14 6 15 4 3 -10 -11 -14
-10 -15 6 -12 12 2 21 -4 23 -14 3 -14 -3 -18 -25 -17 -25 0 -26 1 -8 9 19 8
19 9 -2 9 -13 1 -23 -3 -23 -7 0 -5 -24 -8 -54 -6 -139 7 -184 7 -196 -1 -8
-5 -11 -4 -7 2 4 6 0 19 -8 29 -8 11 -14 14 -15 7 0 -7 -5 -13 -11 -13 -8 0
-9 4 0 13 6 8 7 18 3 23 -4 4 1 2 10 -5 9 -7 23 -9 29 -5 7 4 9 3 6 -3 -4 -6
4 -10 18 -10 14 0 25 3 25 8 0 5 12 9 26 9 17 0 23 -4 19 -12 -3 -7 4 -1 16
15 27 32 34 35 19 8z m246 -21 c26 0 62 -26 51 -36 -4 -5 -12 -2 -18 6 -8 13
-10 13 -19 0 -8 -13 -10 -13 -10 1 0 21 -38 32 -48 13 -6 -11 -10 -10 -20 6
-10 16 -9 18 3 14 11 -5 14 -2 8 12 -6 18 -6 18 14 2 11 -10 28 -18 39 -18z
m-11 -30 c3 -5 -1 -10 -10 -10 -9 0 -13 5 -10 10 3 6 8 10 10 10 2 0 7 -4 10
-10z m95 6 c0 -3 -4 -8 -10 -11 -5 -3 -10 -1 -10 4 0 6 5 11 10 11 6 0 10 -2
10 -4z m30 -11 c0 -8 -7 -15 -15 -15 -9 0 -12 6 -9 15 4 8 10 15 15 15 5 0 9
-7 9 -15z m370 -20 c0 -15 -8 -29 -22 -36 -22 -12 -23 -11 -5 8 10 11 15 27
11 37 -3 9 -1 16 5 16 6 0 11 -11 11 -25z m-40 -3 c0 -13 -31 -37 -67 -53 -18
-8 -33 -17 -33 -21 0 -3 -6 -8 -12 -10 -31 -8 -227 -120 -257 -147 -19 -17
-36 -29 -39 -27 -7 7 22 59 38 67 8 5 49 28 90 52 41 24 110 61 152 81 43 21
80 41 83 47 4 5 11 7 16 4 5 -4 9 -1 9 4 0 6 5 11 10 11 6 0 10 -4 10 -8z
m-835 -82 c3 -5 2 -10 -4 -10 -5 0 -13 5 -16 10 -3 6 -2 10 4 10 5 0 13 -4 16
-10z m797 -52 c-5 -62 -21 -100 -22 -53 0 28 17 105 24 105 2 0 1 -24 -2 -52z
m-736 11 c3 -6 -5 -3 -20 6 -14 10 -26 19 -26 22 0 7 39 -17 46 -28z m95 -59
c61 -47 74 -59 62 -60 -7 0 -13 5 -13 10 0 6 -4 10 -10 10 -10 0 -120 68 -120
74 0 10 51 -12 81 -34z"/>
<path d="M10978 3043 c12 -2 30 -2 40 0 9 3 -1 5 -23 4 -22 0 -30 -2 -17 -4z"/>
<path d="M11063 3043 c9 -2 25 -2 35 0 9 3 1 5 -18 5 -19 0 -27 -2 -17 -5z"/>
<path d="M10475 3443 c-10 -21 -17 -46 -16 -57 2 -10 -3 -23 -11 -27 -11 -7
-11 -9 1 -9 7 0 35 22 61 48 l48 49 -28 16 c-15 10 -30 17 -32 17 -2 0 -13
-17 -23 -37z"/>
<path d="M9365 3418 c-10 -24 -20 -46 -23 -50 -2 -5 0 -8 5 -8 9 0 46 90 40
97 -2 2 -12 -16 -22 -39z"/>
<path d="M9338 3317 c-3 -19 -2 -25 4 -19 6 6 8 18 6 28 -3 14 -5 12 -10 -9z"/>
<path d="M9381 3193 c8 -13 17 -23 22 -23 4 0 12 -10 17 -22 5 -15 9 -17 9 -7
1 8 -13 28 -30 45 -25 23 -29 24 -18 7z"/>
<path d="M9357 3140 c-9 -11 -15 -20 -13 -20 3 0 11 -3 19 -6 11 -4 15 1 13
20 0 14 -1 26 -1 26 0 0 -8 -9 -18 -20z"/>
<path d="M9444 3132 c4 -6 22 -14 41 -18 19 -3 33 -9 31 -13 -3 -4 5 -8 16 -8
20 -2 20 -2 2 11 -10 7 -28 15 -39 18 -11 3 -29 9 -39 14 -13 5 -17 4 -12 -4z"/>
<path d="M9410 3112 c0 -4 14 -8 31 -8 22 -1 27 1 18 7 -17 11 -49 12 -49 1z"/>
<path d="M9758 3103 c7 -3 16 -2 19 1 4 3 -2 6 -13 5 -11 0 -14 -3 -6 -6z"/>
<path d="M9900 3095 c-11 -13 -10 -14 4 -9 9 3 16 10 16 15 0 13 -6 11 -20 -6z"/>
<path d="M9370 3093 c0 -4 5 -15 10 -23 8 -13 10 -13 10 2 0 9 -4 20 -10 23
-5 3 -10 3 -10 -2z"/>
<path d="M9578 3083 c6 -2 18 -2 25 0 6 3 1 5 -13 5 -14 0 -19 -2 -12 -5z"/>
<path d="M9640 3080 c0 -5 5 -10 10 -10 6 0 10 5 10 10 0 6 -4 10 -10 10 -5 0
-10 -4 -10 -10z"/>
<path d="M9673 3071 c-26 -22 -29 -31 -9 -31 8 0 16 7 20 15 3 8 18 15 33 16
25 0 26 1 8 9 -27 12 -27 12 -52 -9z"/>
<path d="M9773 3078 c-22 -29 -24 -38 -8 -38 10 0 13 5 9 12 -4 6 1 17 11 25
11 7 14 13 8 13 -6 0 -15 -6 -20 -12z"/>
<path d="M9480 3070 c-8 -5 -10 -10 -5 -10 6 0 17 5 25 10 8 5 11 10 5 10 -5
0 -17 -5 -25 -10z"/>
<path d="M9545 3060 c-3 -6 1 -7 9 -4 18 7 21 14 7 14 -6 0 -13 -4 -16 -10z"/>
<path d="M9690 3050 c0 -5 5 -10 10 -10 6 0 10 5 10 10 0 6 -4 10 -10 10 -5 0
-10 -4 -10 -10z"/>
<path d="M11730 2480 c-9 -6 -10 -10 -3 -10 6 0 15 5 18 10 8 12 4 12 -15 0z"/>
<path d="M11815 2450 c-3 -5 -1 -10 4 -10 6 0 11 5 11 10 0 6 -2 10 -4 10 -3
0 -8 -4 -11 -10z"/>
<path d="M11878 2413 c7 -3 16 -2 19 1 4 3 -2 6 -13 5 -11 0 -14 -3 -6 -6z"/>
<path d="M11898 2283 c7 -3 16 -2 19 1 4 3 -2 6 -13 5 -11 0 -14 -3 -6 -6z"/>
<path d="M10309 2191 c13 -12 28 -21 34 -21 12 0 11 0 -28 24 l-30 17 24 -20z"/>
</g>
</svg>
