<svg aria-hidden="true" style="position: absolute; width: 0; height: 0; overflow: hidden;" version="1.1" xmlns="http://www.w3.org/2000/svg" xmlns:xlink="http://www.w3.org/1999/xlink">
<defs>
<symbol id="icon-heart" viewBox="0 0 36 32">
<path stroke-linejoin="round" stroke-linecap="round" stroke-miterlimit="4" stroke-width="3" d="M31.26 4.915c-0.766-0.766-1.676-1.375-2.677-1.789s-2.074-0.628-3.158-0.628c-1.084 0-2.157 0.214-3.158 0.628s-1.911 1.023-2.677 1.789l-1.59 1.59-1.59-1.59c-1.548-1.548-3.646-2.417-5.835-2.417s-4.287 0.869-5.835 2.417c-1.548 1.548-2.417 3.646-2.417 5.835s0.869 4.287 2.417 5.835l13.26 13.26 13.26-13.26c0.766-0.766 1.374-1.676 1.789-2.677s0.628-2.074 0.628-3.158-0.213-2.157-0.628-3.158c-0.415-1.001-1.023-1.911-1.789-2.677z"></path>
</symbol>

<symbol id="icon-close" viewBox="0 0 24 24">
    <path d="M18 6L6 18M6 6L18 18" stroke="#121417" stroke-width="1.8" stroke-linejoin="round" stroke-linecap="round"/>
</symbol>


</defs>
</svg>


	
	
	